<svg width="195" height="61" viewBox="0 0 195 61" fill="none" xmlns="http://www.w3.org/2000/svg">
<g clip-path="url(#clip0_51_1174)">
<path fill-rule="evenodd" clip-rule="evenodd" d="M13.7778 44.6662H37.0953L37.451 41.0592H16.2162L13.7778 44.6662Z" fill="white"/>
<path fill-rule="evenodd" clip-rule="evenodd" d="M22.5616 17.7542L22.4272 16.2933H17.69L17.5836 18.0219L22.5616 17.7542Z" fill="#493CC1"/>
<path fill-rule="evenodd" clip-rule="evenodd" d="M26.4127 17.7869L26.815 16.2852L30.2885 16.2937L30.4799 18.1752L26.4127 17.7869Z" fill="#493CC1"/>
<path fill-rule="evenodd" clip-rule="evenodd" d="M34.3904 17.4397L34.7599 16.2933H39.5336L39.4654 17.0791L39.1167 18.3248L34.3904 17.4397Z" fill="#493CC1"/>
<path fill-rule="evenodd" clip-rule="evenodd" d="M28.551 4.60132C32.6262 4.60132 35.9296 8.94533 35.9296 14.304H34.847C34.847 9.73141 32.0282 5.71993 28.5507 5.71993C25.0733 5.71993 22.2545 9.73141 22.2545 14.304H21.1718C21.1718 8.94533 24.4752 4.60132 28.5504 4.60132H28.551Z" fill="#493CC1"/>
<path fill-rule="evenodd" clip-rule="evenodd" d="M40.3131 16.2933L37.9844 44.6666L41.7612 40.2201L46.1503 44.6093L40.3131 16.2933Z" fill="white"/>
<path fill-rule="evenodd" clip-rule="evenodd" d="M27.3833 17.8792L28.4696 17.9831L30.4801 30.4799L35.9253 17.7271L39.1169 18.3248L39.4656 17.0791L37.4512 40.2201H16.2167L17.6901 16.2933L17.5837 18.0219L21.5053 17.8112L23.0936 29.7957L27.3833 17.8792Z" fill="white"/>
<path d="M20.1537 40.2201C19.8858 40.2201 19.6971 40.1049 19.5858 39.8757C19.4749 39.6453 19.4078 39.3768 19.3853 39.0701L17.6171 17.7652C17.6147 17.6119 17.6196 17.4738 17.6318 17.351C17.6589 17.0761 17.7415 16.8304 17.8783 16.6152C18.0158 16.4009 18.1728 16.2933 18.3517 16.2933H21.8008C22.0504 16.2933 22.2345 16.4085 22.3546 16.6378C22.4744 16.8682 22.5326 17.091 22.5293 17.3053L23.3556 28.6704L26.535 17.351C26.5917 17.1367 26.7035 16.9063 26.8702 16.6618C27.0373 16.4162 27.2546 16.2933 27.5219 16.2933H29.6339C29.9018 16.2933 30.0941 16.4162 30.2127 16.6618C30.3312 16.9063 30.3974 17.1367 30.4117 17.351L31.3502 28.6704L34.4268 17.3053C34.4841 17.091 34.5951 16.8682 34.76 16.6378C34.9255 16.4085 35.1334 16.2933 35.3827 16.2933H38.8318C38.9921 16.2933 39.1244 16.4009 39.2274 16.6152C39.3311 16.8304 39.3689 17.0761 39.3414 17.351C39.3292 17.4738 39.3067 17.6119 39.2738 17.7652L33.2881 39.0701C33.1863 39.3768 33.0619 39.645 32.9141 39.8757C32.7669 40.1049 32.5593 40.2201 32.292 40.2201H29.2971C29.0298 40.2201 28.8411 40.1049 28.7298 39.8757C28.6189 39.6453 28.543 39.3768 28.5018 39.0701L27.4204 28.1184L24.1441 39.0701C24.06 39.3768 23.9402 39.645 23.7832 39.8757C23.6272 40.1049 23.415 40.2201 23.1477 40.2201H20.1534H20.1537Z" fill="#493CC1"/>
<path fill-rule="evenodd" clip-rule="evenodd" d="M41.8427 41.3544L43.4977 43.0107L45.1531 44.6669H42.0673H38.9818L40.4122 43.0107L41.8427 41.3544Z" fill="white"/>
</g>
<path d="M64.2875 38.5345C63.9935 38.5345 63.7638 38.4487 63.601 38.2783C63.4383 38.108 63.3335 37.9212 63.2868 37.7194L60.96 22.8511C60.96 22.8347 60.96 22.8196 60.96 22.8045C60.96 22.7893 60.96 22.7729 60.96 22.7578C60.96 22.6177 61.0067 22.4978 61.1001 22.3969C61.1935 22.2959 61.3096 22.2455 61.4496 22.2455H65.0559C65.5367 22.2455 65.8004 22.4398 65.8471 22.8272L66.9865 30.6455L68.3127 26.5042C68.343 26.3805 68.4137 26.2404 68.5222 26.0852C68.6307 25.93 68.8175 25.8531 69.0812 25.8531H71.1052C71.3689 25.8531 71.5544 25.93 71.6642 26.0852C71.7727 26.2404 71.8509 26.3805 71.8963 26.5042L73.1998 30.6228L74.3632 22.8272C74.4099 22.4398 74.6661 22.2455 75.1317 22.2455H78.738C78.8781 22.2455 78.9979 22.2959 79.0989 22.3969C79.1998 22.4978 79.2503 22.6177 79.2503 22.7578C79.2503 22.7729 79.2503 22.7893 79.2503 22.8045C79.2503 22.8196 79.2427 22.8347 79.2276 22.8511L76.9008 37.7194C76.8856 37.9212 76.7885 38.108 76.6105 38.2783C76.4314 38.4487 76.1954 38.5345 75.9001 38.5345H73.1317C72.8528 38.5345 72.6433 38.4613 72.5033 38.3137C72.3632 38.166 72.2698 38.0386 72.2244 37.9288L70.1071 32.2051L67.9657 37.9288C67.9342 38.0373 67.8458 38.166 67.6982 38.3137C67.5506 38.4613 67.3373 38.5345 67.0585 38.5345H64.2887H64.2875ZM81.9494 38.5345C81.7942 38.5345 81.6541 38.4764 81.5304 38.3604C81.4068 38.2443 81.345 38.1004 81.345 37.9288V22.8511C81.345 22.6795 81.4068 22.537 81.5304 22.4196C81.6541 22.3035 81.7942 22.2455 81.9494 22.2455H93.3513C93.5216 22.2455 93.6693 22.3035 93.7942 22.4196C93.9179 22.5357 93.9797 22.6795 93.9797 22.8511V25.5969C93.9797 25.7521 93.9179 25.8922 93.7942 26.0158C93.6705 26.1395 93.5229 26.2026 93.3513 26.2026H86.1614V28.5054H92.839C93.0106 28.5054 93.157 28.5635 93.2806 28.6808C93.4043 28.7969 93.4674 28.9408 93.4674 29.1111V31.6247C93.4674 31.795 93.4056 31.9389 93.2806 32.055C93.157 32.1711 93.0093 32.2304 92.839 32.2304H86.1614V34.5799H93.5368C93.7084 34.5799 93.8548 34.6417 93.9784 34.7667C94.1021 34.8903 94.1652 35.038 94.1652 35.2083V37.9301C94.1652 38.1004 94.1034 38.2443 93.9784 38.3616C93.8548 38.4777 93.7071 38.5358 93.5368 38.5358H81.9494V38.5345ZM97.1444 38.5345C96.9892 38.5345 96.8491 38.4764 96.7254 38.3604C96.6018 38.2443 96.54 38.1004 96.54 37.9288V22.8511C96.54 22.6795 96.6018 22.537 96.7254 22.4196C96.8491 22.3035 96.9892 22.2455 97.1444 22.2455H104.568C105.98 22.2455 107.134 22.4322 108.034 22.8045C108.934 23.1767 109.601 23.7117 110.035 24.4095C110.469 25.1073 110.686 25.9679 110.686 26.9925C110.686 27.5199 110.582 27.9894 110.372 28.4007C110.163 28.8121 109.91 29.1528 109.616 29.4253C109.321 29.6966 109.042 29.8935 108.778 30.0184C109.383 30.2821 109.91 30.7275 110.361 31.3559C110.811 31.9843 111.036 32.7023 111.036 33.5086C111.036 34.5951 110.792 35.5099 110.303 36.2544C109.814 36.9988 109.108 37.5654 108.185 37.9528C107.263 38.3402 106.134 38.5345 104.8 38.5345H97.1444ZM101.542 35.0216H104.264C104.791 35.0216 105.178 34.8626 105.427 34.5446C105.676 34.2266 105.799 33.8733 105.799 33.4859C105.799 33.0821 105.667 32.7301 105.404 32.4272C105.141 32.1244 104.76 31.973 104.264 31.973H101.542V35.0216ZM101.542 28.5521H104.031C104.527 28.5521 104.892 28.4121 105.125 28.1332C105.358 27.8543 105.475 27.5275 105.475 27.1565C105.475 26.7843 105.359 26.4587 105.125 26.1799C104.892 25.901 104.527 25.7609 104.031 25.7609H101.542V28.5534V28.5521ZM124.368 38.7667C122.739 38.7667 121.385 38.5383 120.308 38.0802C119.229 37.6222 118.423 37.0253 117.888 36.2884C117.353 35.5515 117.069 34.7717 117.038 33.949C117.038 33.8089 117.085 33.6928 117.179 33.5995C117.272 33.5061 117.388 33.4594 117.528 33.4594H121.228C121.445 33.4594 121.615 33.4947 121.74 33.5641C121.864 33.6335 121.996 33.7307 122.136 33.8556C122.276 34.026 122.439 34.1849 122.625 34.3326C122.811 34.4802 123.051 34.5963 123.345 34.6821C123.639 34.7679 123.981 34.8108 124.368 34.8108C125.083 34.8108 125.633 34.7137 126.02 34.5193C126.408 34.325 126.602 34.0575 126.602 33.7168C126.602 33.4531 126.497 33.2361 126.288 33.0657C126.078 32.8954 125.725 32.7401 125.229 32.6001C124.733 32.46 124.058 32.3136 123.205 32.1584C122.01 31.9565 120.979 31.6588 120.111 31.2625C119.243 30.8663 118.579 30.3326 118.121 29.6575C117.663 28.9824 117.435 28.1483 117.435 27.1553C117.435 26.1471 117.717 25.2549 118.284 24.4802C118.85 23.7042 119.642 23.0997 120.657 22.6657C121.673 22.2316 122.857 22.0146 124.206 22.0146C125.322 22.0146 126.312 22.1622 127.172 22.4562C128.033 22.7515 128.758 23.1351 129.348 23.6083C129.937 24.0814 130.387 24.59 130.697 25.1326C131.007 25.6751 131.17 26.195 131.185 26.6922C131.185 26.8322 131.134 26.9521 131.033 27.0531C130.932 27.154 130.82 27.2045 130.695 27.2045H126.81C126.623 27.2045 126.468 27.1729 126.344 27.1111C126.22 27.0493 126.096 26.9483 125.972 26.8083C125.895 26.5912 125.701 26.3969 125.391 26.2266C125.08 26.0562 124.684 25.9704 124.204 25.9704C123.677 25.9704 123.273 26.06 122.994 26.2379C122.715 26.4171 122.575 26.6758 122.575 27.0177C122.575 27.2499 122.661 27.4518 122.832 27.6234C123.002 27.7938 123.305 27.9452 123.739 28.0764C124.173 28.2089 124.779 28.3515 125.553 28.5067C127.027 28.7237 128.217 29.0341 129.126 29.4379C130.033 29.8417 130.697 30.3679 131.115 31.0203C131.534 31.6726 131.744 32.4865 131.744 33.4632C131.744 34.5648 131.426 35.5111 130.79 36.3023C130.154 37.0935 129.281 37.7017 128.172 38.1294C127.062 38.5559 125.794 38.7692 124.367 38.7692L124.368 38.7667ZM137.794 38.5345C137.624 38.5345 137.48 38.4764 137.364 38.3604C137.248 38.2443 137.189 38.1004 137.189 37.9288V26.5736H133.186C133.016 26.5736 132.872 26.5155 132.756 26.3982C132.64 26.2821 132.58 26.1382 132.58 25.9679V22.8499C132.58 22.6783 132.638 22.5357 132.756 22.4183C132.872 22.3023 133.016 22.2442 133.186 22.2442H146.264C146.434 22.2442 146.578 22.3023 146.694 22.4183C146.81 22.5344 146.868 22.6783 146.868 22.8499V25.9679C146.868 26.1382 146.81 26.2821 146.694 26.3982C146.578 26.5143 146.434 26.5736 146.264 26.5736H142.261V37.9288C142.261 38.0992 142.203 38.243 142.086 38.3604C141.97 38.4764 141.826 38.5345 141.656 38.5345H137.793H137.794ZM155.572 38.7667C154.083 38.7667 152.791 38.5345 151.698 38.0689C150.604 37.6033 149.744 36.9017 149.116 35.9629C148.487 35.0241 148.15 33.8569 148.104 32.4613C148.088 31.8102 148.081 31.1389 148.081 30.4487C148.081 29.7584 148.088 29.072 148.104 28.3893C148.15 27.0089 148.487 25.8455 149.116 24.8991C149.744 23.9527 150.608 23.2348 151.71 22.7464C152.811 22.2581 154.099 22.0133 155.572 22.0133C157.031 22.0133 158.311 22.2568 159.412 22.7464C160.514 23.2348 161.382 23.9527 162.018 24.8991C162.654 25.8455 162.988 27.0089 163.018 28.3893C163.049 29.072 163.065 29.7584 163.065 30.4487C163.065 31.1389 163.05 31.8102 163.018 32.4613C162.972 33.8569 162.635 35.0253 162.006 35.9629C161.378 36.9017 160.517 37.6033 159.423 38.0689C158.331 38.5345 157.046 38.7667 155.572 38.7667ZM155.572 34.8108C156.225 34.8108 156.758 34.6127 157.177 34.2165C157.596 33.8215 157.813 33.1894 157.83 32.32C157.86 31.6537 157.876 31.0051 157.876 30.3767C157.876 29.7483 157.861 29.1086 157.83 28.4575C157.813 27.8834 157.71 27.4102 157.516 27.0379C157.321 26.6657 157.058 26.3944 156.724 26.224C156.391 26.0537 156.006 25.9679 155.572 25.9679C155.138 25.9679 154.75 26.0537 154.409 26.224C154.068 26.3944 153.799 26.6657 153.606 27.0379C153.412 27.4102 153.307 27.8834 153.292 28.4575C153.276 29.1086 153.268 29.7483 153.268 30.3767C153.268 31.0051 153.276 31.6524 153.292 32.32C153.322 33.1894 153.545 33.8215 153.955 34.2165C154.366 34.6127 154.905 34.8108 155.572 34.8108ZM166.067 38.5332C165.912 38.5332 165.773 38.4752 165.648 38.3591C165.524 38.243 165.463 38.0992 165.463 37.9276V22.8499C165.463 22.6783 165.524 22.5357 165.648 22.4183C165.772 22.3023 165.912 22.2442 166.067 22.2442H172.699C174.809 22.2442 176.465 22.725 177.667 23.6865C178.87 24.648 179.47 25.9906 179.47 27.7117C179.47 28.7982 179.222 29.7206 178.726 30.4815C178.23 31.2424 177.577 31.8392 176.771 32.2733L179.797 37.7648C179.844 37.8582 179.866 37.944 179.866 38.0209C179.866 38.161 179.82 38.2809 179.726 38.3818C179.633 38.4828 179.517 38.5332 179.377 38.5332H175.445C175.15 38.5332 174.925 38.46 174.77 38.3124C174.615 38.1648 174.514 38.0298 174.467 37.9048L172.14 33.1111H170.465V37.9276C170.465 38.0979 170.406 38.2417 170.29 38.3591C170.174 38.4752 170.03 38.5332 169.86 38.5332H166.067ZM170.465 29.2714H172.675C173.218 29.2714 173.622 29.1199 173.885 28.8184C174.149 28.5155 174.282 28.1395 174.282 27.6903C174.282 27.2247 174.154 26.8297 173.898 26.5042C173.642 26.1786 173.235 26.0158 172.676 26.0158H170.466V29.2726L170.465 29.2714ZM182.518 38.5332C182.362 38.5332 182.222 38.4752 182.099 38.3591C181.975 38.243 181.913 38.0992 181.913 37.9276V22.8499C181.913 22.6783 181.975 22.5357 182.099 22.4183C182.222 22.3023 182.362 22.2442 182.518 22.2442H193.919C194.09 22.2442 194.237 22.3023 194.362 22.4183C194.486 22.5344 194.548 22.6783 194.548 22.8499V25.5956C194.548 25.7508 194.486 25.8909 194.362 26.0146C194.239 26.1382 194.091 26.2013 193.919 26.2013H186.73V28.5042H193.407C193.579 28.5042 193.725 28.5622 193.849 28.6796C193.972 28.7957 194.036 28.9395 194.036 29.1099V31.6234C194.036 31.7938 193.974 31.9376 193.849 32.0537C193.725 32.1698 193.578 32.2291 193.407 32.2291H186.73V34.5786H194.105C194.277 34.5786 194.423 34.6405 194.547 34.7654C194.67 34.8891 194.733 35.0367 194.733 35.207V37.9288C194.733 38.0992 194.672 38.243 194.547 38.3604C194.423 38.4764 194.275 38.5345 194.105 38.5345H182.518V38.5332Z" fill="#493CC1"/>
<defs>
<clipPath id="clip0_51_1174">
<rect width="60.96" height="60.96" fill="white"/>
</clipPath>
</defs>
</svg>
