<svg width="202" height="18" viewBox="0 0 202 18" fill="none" xmlns="http://www.w3.org/2000/svg">
<path d="M11.7905 8.19316C11.7905 9.03528 11.5956 9.80198 11.206 10.4933C10.8164 11.172 10.2382 11.7124 9.4715 12.1147C8.71737 12.5169 7.79984 12.718 6.71892 12.718H5.05982V16.96H0.874384V3.6118H6.71892C8.35287 3.6118 9.60348 4.02657 10.4707 4.85612C11.3506 5.68567 11.7905 6.79801 11.7905 8.19316ZM6.24758 9.41863C7.11484 9.41863 7.54846 9.01014 7.54846 8.19316C7.54846 7.37618 7.11484 6.96769 6.24758 6.96769H5.05982V9.41863H6.24758ZM18.4912 17.0919C17.2343 17.0919 16.078 16.7966 15.0222 16.2058C13.979 15.6151 13.1494 14.7981 12.5336 13.7549C11.9177 12.7117 11.6097 11.5365 11.6097 10.2293C11.6097 8.92216 11.9177 7.74696 12.5336 6.70375C13.1494 5.66053 13.979 4.84984 15.0222 4.27167C16.078 3.68093 17.2343 3.38556 18.4912 3.38556C19.7481 3.38556 20.8981 3.68093 21.9414 4.27167C22.9846 4.84984 23.8078 5.66053 24.4112 6.70375C25.027 7.74696 25.335 8.92216 25.335 10.2293C25.335 11.5365 25.027 12.7117 24.4112 13.7549C23.8078 14.7981 22.9783 15.6151 21.9225 16.2058C20.8793 16.7966 19.7355 17.0919 18.4912 17.0919ZM18.4912 13.1893C19.3208 13.1893 19.9618 12.9253 20.4142 12.3975C20.8667 11.857 21.093 11.1343 21.093 10.2293C21.093 9.31179 20.8667 8.58908 20.4142 8.06119C19.9618 7.52072 19.3208 7.25049 18.4912 7.25049C17.6491 7.25049 17.0018 7.52072 16.5493 8.06119C16.0968 8.58908 15.8706 9.31179 15.8706 10.2293C15.8706 11.1343 16.0968 11.857 16.5493 12.3975C17.0018 12.9253 17.6491 13.1893 18.4912 13.1893ZM32.4254 16.96L29.9179 12.1712H29.8991V16.96H25.7137V3.6118H31.9353C33.0162 3.6118 33.94 3.80662 34.7067 4.19625C35.4734 4.57332 36.0453 5.09493 36.4223 5.76108C36.812 6.41466 37.0068 7.15623 37.0068 7.98577C37.0068 8.87816 36.7554 9.67 36.2527 10.3613C35.7625 11.0526 35.0523 11.5491 34.1222 11.8507L37.0257 16.96H32.4254ZM29.8991 9.38092H31.5582C31.9604 9.38092 32.262 9.29294 32.4631 9.11697C32.6642 8.92844 32.7648 8.63936 32.7648 8.24972C32.7648 7.89779 32.658 7.62128 32.4443 7.42017C32.2432 7.21907 31.9478 7.11852 31.5582 7.11852H29.8991V9.38092Z" fill="#9B9B9B"/>
<path d="M63.066 16.9074C63.094 16.9565 63.1081 17.0161 63.1081 17.0862C63.1081 17.1914 63.0695 17.2826 62.9923 17.3598C62.9222 17.4369 62.8275 17.4755 62.7083 17.4755C62.6311 17.4755 62.561 17.4579 62.4979 17.4229C62.4417 17.3878 62.3962 17.3352 62.3611 17.2651C62.2278 17.0056 62.1086 16.6829 62.0034 16.2971C61.9052 15.9044 61.8175 15.4695 61.7404 14.9926C61.6702 14.5156 61.6106 14.0036 61.5615 13.4565C61.5194 12.9024 61.4843 12.3308 61.4563 11.7416C60.9303 11.8118 60.3376 11.8889 59.6783 11.9731C59.026 12.0573 58.279 12.1554 57.4373 12.2677C56.8482 12.3518 56.2485 12.4255 55.6383 12.4886C54.1373 14.1228 52.5557 15.3643 50.8934 16.213C49.2381 17.0546 47.5758 17.4755 45.9065 17.4755C45.163 17.4755 44.5177 17.4018 43.9707 17.2545C43.4306 17.1143 42.9817 16.9565 42.624 16.7811C42.2733 16.5987 42.0103 16.4304 41.8349 16.2761C41.6526 16.1218 41.5544 16.0376 41.5404 16.0236C41.4702 15.9535 41.4351 15.8623 41.4351 15.7501C41.4351 15.6378 41.4737 15.5432 41.5509 15.466C41.628 15.3888 41.7192 15.3503 41.8244 15.3503C41.9437 15.3503 42.0418 15.3924 42.119 15.4765C42.133 15.4906 42.2172 15.5642 42.3715 15.6975C42.5258 15.8237 42.7538 15.9605 43.0554 16.1078C43.364 16.2551 43.7532 16.3883 44.2232 16.5076C44.6931 16.6268 45.2507 16.6864 45.896 16.6864C46.7797 16.6864 47.6249 16.5672 48.4315 16.3287C49.2381 16.0902 49.9991 15.7816 50.7145 15.4029C51.437 15.0171 52.1068 14.5787 52.724 14.0878C53.3482 13.5968 53.9129 13.0988 54.4179 12.5938C53.9199 12.6359 53.4254 12.6675 52.9344 12.6885C52.4434 12.7095 51.9595 12.7201 51.4825 12.7201C50.5427 12.7201 49.6484 12.6675 48.7997 12.5623C47.951 12.457 47.2041 12.2817 46.5588 12.0362C45.9135 11.7837 45.398 11.4506 45.0122 11.0367C44.6335 10.6229 44.4441 10.1074 44.4441 9.49017C44.4441 9.20961 44.5002 8.92906 44.6124 8.6485C44.7317 8.36795 44.872 8.11545 45.0333 7.891C45.1946 7.65954 45.3629 7.47368 45.5383 7.3334C45.7136 7.18611 45.8644 7.11246 45.9907 7.11246C46.0889 7.11246 46.18 7.14753 46.2642 7.21767C46.3484 7.28781 46.3905 7.38249 46.3905 7.50173C46.3905 7.56486 46.3764 7.62798 46.3484 7.69111C46.3203 7.74722 46.2782 7.79281 46.2221 7.82788C46.2081 7.8419 46.1485 7.891 46.0433 7.97517C45.9381 8.05933 45.8258 8.17506 45.7066 8.32236C45.5874 8.46263 45.4787 8.63447 45.3805 8.83788C45.2823 9.03427 45.2332 9.24819 45.2332 9.47965C45.2332 9.87944 45.3699 10.2336 45.6435 10.5423C45.924 10.8438 46.3273 11.0999 46.8534 11.3103C47.3864 11.5137 48.0387 11.668 48.8102 11.7732C49.5818 11.8784 50.462 11.931 51.451 11.931C52.0191 11.931 52.6188 11.9135 53.25 11.8784C53.8813 11.8433 54.5476 11.7907 55.249 11.7206C55.5857 11.3488 55.8838 10.9982 56.1433 10.6685C56.4028 10.3388 56.6237 10.0443 56.8061 9.78475C57.1077 9.3569 57.4233 8.901 57.753 8.41704C58.0826 7.93308 58.4088 7.44211 58.7314 6.94413C59.061 6.44614 59.3802 5.95517 59.6888 5.47121C60.0044 4.98024 60.299 4.52083 60.5725 4.09298C60.8461 3.65812 61.0916 3.26534 61.309 2.91465C61.5264 2.55694 61.7053 2.26236 61.8456 2.0309C61.8876 1.84152 61.9508 1.66968 62.0349 1.51538C62.1191 1.35406 62.2559 1.2734 62.4453 1.2734C62.5505 1.2734 62.6522 1.31899 62.7504 1.41017C62.8486 1.49433 62.8976 1.60305 62.8976 1.73631C62.8976 1.83451 62.8626 1.93972 62.7924 2.05194C62.7223 2.16416 62.6557 2.25885 62.5925 2.336C62.5715 2.46926 62.5364 2.75333 62.4873 3.18819C62.4453 3.62305 62.3997 4.15611 62.3506 4.78736C62.3085 5.41159 62.2699 6.10246 62.2348 6.85996C62.2068 7.61045 62.1928 8.37145 62.1928 9.14298C62.1928 9.43055 62.1928 9.71461 62.1928 9.99517C62.1928 10.2757 62.1998 10.5598 62.2138 10.8474C63.2659 10.7141 64.0339 10.6229 64.5179 10.5738C65.0018 10.5177 65.2578 10.4896 65.2859 10.4896C65.3771 10.4896 65.4647 10.5282 65.5489 10.6054C65.6401 10.6755 65.6857 10.7702 65.6857 10.8894C65.6857 10.9876 65.6506 11.0753 65.5805 11.1525C65.5173 11.2226 65.4332 11.2647 65.328 11.2787C65.2017 11.2927 65.0544 11.3103 64.8861 11.3313C64.7178 11.3524 64.5108 11.3769 64.2654 11.405C64.0199 11.433 63.7323 11.4681 63.4026 11.5102C63.073 11.5452 62.6872 11.5908 62.2454 11.6469C62.2664 12.2221 62.298 12.7762 62.34 13.3092C62.3891 13.8353 62.4453 14.3262 62.5084 14.7821C62.5785 15.2381 62.6592 15.6484 62.7504 16.0131C62.8415 16.3778 62.9467 16.6759 63.066 16.9074ZM57.3321 11.4786C58.1598 11.3664 58.9103 11.2682 59.5836 11.184C60.2639 11.0928 60.8776 11.0122 61.4247 10.942C61.4177 10.6404 61.4107 10.3388 61.4037 10.0373C61.4037 9.73565 61.4037 9.43055 61.4037 9.12194C61.4037 8.13298 61.4212 7.18961 61.4563 6.29183C61.4914 5.38704 61.5405 4.60149 61.6036 3.93517C61.323 4.37704 61.0109 4.86802 60.6672 5.40808C60.3306 5.94114 59.9799 6.48822 59.6151 7.04933C59.2504 7.60343 58.8822 8.15402 58.5105 8.70111C58.1387 9.24819 57.7845 9.7602 57.4479 10.2371C57.2795 10.4756 57.1077 10.7071 56.9323 10.9315C56.757 11.156 56.5816 11.3769 56.4063 11.5943C56.5606 11.5803 56.7114 11.5628 56.8587 11.5417C57.013 11.5207 57.1708 11.4996 57.3321 11.4786ZM72.0823 14.0457C72.0052 14.207 71.907 14.3999 71.7878 14.6243C71.6755 14.8418 71.5458 15.0697 71.3985 15.3082C71.2512 15.5467 71.0864 15.7851 70.904 16.0236C70.7216 16.2551 70.5217 16.4655 70.3043 16.6549C70.0939 16.8372 69.8659 16.9845 69.6205 17.0967C69.382 17.216 69.126 17.2756 68.8524 17.2756C68.4316 17.2756 68.0704 17.1458 67.7688 16.8863C67.4672 16.6268 67.2112 16.2866 67.0008 15.8658C66.7904 15.445 66.6185 14.968 66.4853 14.435C66.359 13.8949 66.2608 13.3478 66.1907 12.7937C66.1205 12.2326 66.0714 11.689 66.0434 11.163C66.0223 10.6369 66.0118 10.1705 66.0118 9.76371C66.0118 9.17454 66.0293 8.56434 66.0644 7.93308C66.1065 7.30183 66.1696 6.68461 66.2538 6.08142C66.338 5.47822 66.4432 4.90659 66.5694 4.36652C66.7027 3.82645 66.857 3.35302 67.0323 2.94621C67.2147 2.5394 67.4216 2.21676 67.6531 1.97829C67.8845 1.73982 68.1475 1.62058 68.4421 1.62058C68.6736 1.62058 68.8805 1.6767 69.0629 1.78892C69.2522 1.89413 69.41 2.06947 69.5363 2.31496C69.6625 2.56045 69.7607 2.87958 69.8309 3.27236C69.901 3.66513 69.9361 4.14558 69.9361 4.71371C69.9361 5.4151 69.8624 6.14104 69.7151 6.89152C69.5679 7.63499 69.368 8.38548 69.1155 9.14298C68.863 9.90048 68.5649 10.658 68.2212 11.4155C67.8775 12.166 67.5093 12.8989 67.1165 13.6143C67.2918 14.5051 67.5268 15.2065 67.8214 15.7185C68.116 16.2235 68.4702 16.476 68.884 16.476C69.1646 16.476 69.4346 16.3673 69.6941 16.1499C69.9536 15.9254 70.1921 15.6624 70.4095 15.3608C70.627 15.0592 70.8163 14.7541 70.9776 14.4455C71.146 14.1299 71.2757 13.8774 71.3669 13.688C71.402 13.6178 71.4511 13.5652 71.5142 13.5302C71.5773 13.4881 71.6475 13.467 71.7246 13.467C71.8439 13.467 71.9386 13.5091 72.0087 13.5933C72.0858 13.6775 72.1244 13.7721 72.1244 13.8774C72.1244 13.9194 72.1104 13.9756 72.0823 14.0457ZM66.8114 9.81631C66.8114 10.2652 66.8219 10.6966 66.843 11.1104C66.864 11.5242 66.8921 11.9205 66.9271 12.2992C67.2217 11.7311 67.5023 11.1279 67.7688 10.4896C68.0353 9.84437 68.2703 9.19559 68.4737 8.54329C68.6771 7.88399 68.8384 7.2317 68.9576 6.58642C69.0839 5.93413 69.147 5.3134 69.147 4.72423C69.147 3.89659 69.0804 3.30392 68.9471 2.94621C68.8139 2.5885 68.635 2.40965 68.4106 2.40965C68.2633 2.40965 68.1195 2.51135 67.9792 2.71475C67.8459 2.91815 67.7197 3.1952 67.6005 3.5459C67.4812 3.89659 67.3725 4.31041 67.2743 4.78736C67.1761 5.2643 67.092 5.77631 67.0218 6.3234C66.9587 6.87048 66.9061 7.44211 66.864 8.03829C66.8289 8.63447 66.8114 9.22715 66.8114 9.81631ZM72.6399 15.8027C72.7872 16.0061 72.9766 16.1709 73.2081 16.2971C73.4395 16.4164 73.7236 16.476 74.0603 16.476C74.4039 16.476 74.716 16.3953 74.9966 16.234C75.2772 16.0657 75.5332 15.8483 75.7646 15.5817C75.9961 15.3152 76.203 15.0171 76.3854 14.6875C76.5677 14.3578 76.7325 14.0282 76.8798 13.6985C76.9149 13.6213 76.964 13.5652 77.0271 13.5302C77.0903 13.4881 77.1604 13.467 77.2375 13.467C77.3568 13.467 77.4515 13.5091 77.5216 13.5933C77.5988 13.6775 77.6373 13.7686 77.6373 13.8668C77.6373 13.9019 77.6338 13.9335 77.6268 13.9615C77.6198 13.9826 77.6093 14.0071 77.5953 14.0352C77.1113 15.1013 76.5817 15.9044 76.0066 16.4444C75.4385 16.9845 74.7932 17.2616 74.0708 17.2756C73.6079 17.2756 73.2081 17.1844 72.8714 17.002C72.5347 16.8267 72.2577 16.5987 72.0403 16.3182C71.8228 16.0306 71.6615 15.708 71.5563 15.3503C71.4511 14.9926 71.3985 14.6349 71.3985 14.2771C71.3985 13.9194 71.4406 13.5898 71.5247 13.2882C71.6159 12.9866 71.7422 12.7236 71.9035 12.4991C72.0718 12.2747 72.2682 12.0993 72.4926 11.9731C72.7241 11.8468 72.9766 11.7837 73.2501 11.7837C73.4115 11.7837 73.5693 11.8188 73.7236 11.8889C73.8849 11.952 74.0287 12.0467 74.1549 12.173C74.2812 12.2922 74.3829 12.4395 74.46 12.6149C74.5372 12.7902 74.5758 12.9901 74.5758 13.2145C74.5758 13.5021 74.5267 13.7721 74.4285 14.0246C74.3303 14.2771 74.1935 14.5121 74.0182 14.7295C73.8498 14.947 73.6464 15.1469 73.408 15.3292C73.1695 15.5116 72.9135 15.6694 72.6399 15.8027ZM72.3243 15.1188C72.5417 15.0276 72.7381 14.9119 72.9135 14.7716C73.0958 14.6313 73.2501 14.477 73.3764 14.3087C73.5026 14.1404 73.6008 13.965 73.671 13.7827C73.7411 13.5933 73.7762 13.4039 73.7762 13.2145C73.7762 13.0041 73.7236 12.8463 73.6184 12.7411C73.5132 12.6289 73.3904 12.5728 73.2501 12.5728C73.0608 12.5728 72.8995 12.6254 72.7662 12.7306C72.6329 12.8358 72.5242 12.9726 72.44 13.1409C72.3559 13.3092 72.2928 13.4986 72.2507 13.709C72.2156 13.9124 72.1981 14.1158 72.1981 14.3192C72.1981 14.4455 72.2086 14.5787 72.2296 14.719C72.2577 14.8593 72.2892 14.9926 72.3243 15.1188ZM83.1608 11.0052C82.0806 12.3378 81.0952 13.7406 80.2044 15.2135C80.4499 15.5782 80.7199 15.8798 81.0145 16.1183C81.3091 16.3568 81.6423 16.476 82.014 16.476C82.3437 16.476 82.6558 16.3813 82.9504 16.1919C83.2449 16.0026 83.5115 15.7711 83.7499 15.4976C83.9954 15.217 84.2058 14.9189 84.3812 14.6033C84.5635 14.2807 84.7038 13.9896 84.802 13.7301C84.8722 13.5547 84.9949 13.467 85.1703 13.467C85.2895 13.467 85.3842 13.5091 85.4543 13.5933C85.5315 13.6704 85.57 13.7616 85.57 13.8668C85.57 13.9019 85.563 13.9475 85.549 14.0036C85.556 13.9896 85.5245 14.0597 85.4543 14.214C85.3842 14.3683 85.279 14.5682 85.1387 14.8137C84.9984 15.0522 84.8266 15.3152 84.6232 15.6028C84.4198 15.8903 84.1848 16.1604 83.9183 16.4129C83.6588 16.6584 83.3677 16.8618 83.045 17.0231C82.7224 17.1914 82.3752 17.2756 82.0035 17.2756C81.5406 17.2756 81.1232 17.1528 80.7515 16.9074C80.3868 16.6619 80.0571 16.3498 79.7625 15.971C79.6433 16.1814 79.5276 16.3918 79.4154 16.6023C79.3031 16.8127 79.1909 17.0231 79.0787 17.2335C79.0015 17.3808 78.8823 17.4544 78.721 17.4544C78.6017 17.4544 78.5035 17.4124 78.4264 17.3282C78.3563 17.244 78.3212 17.1528 78.3212 17.0546C78.3212 16.9985 78.3387 16.9354 78.3738 16.8653C78.5141 16.5917 78.6579 16.3182 78.8051 16.0446C78.9524 15.7711 79.1067 15.5011 79.2681 15.2345C79.0296 14.8207 78.8262 14.3999 78.6579 13.972C78.4895 13.5372 78.3563 13.1304 78.2581 12.7516L77.6373 14.0352C77.5602 14.1895 77.4409 14.2666 77.2796 14.2666C77.1604 14.2666 77.0622 14.2245 76.985 14.1404C76.9149 14.0562 76.8798 13.965 76.8798 13.8668C76.8798 13.8037 76.8939 13.7476 76.9219 13.6985L78.0687 11.2998C78.1038 11.2366 78.1529 11.184 78.216 11.1419C78.2791 11.0999 78.3492 11.0788 78.4264 11.0788C78.5386 11.0788 78.6298 11.1174 78.6999 11.1945C78.7701 11.2647 78.8122 11.3524 78.8262 11.4576C78.8332 11.5558 78.8578 11.7101 78.8998 11.9205C78.9489 12.1309 79.0121 12.3729 79.0892 12.6464C79.1734 12.9129 79.2681 13.2005 79.3733 13.5091C79.4855 13.8177 79.6153 14.1228 79.7625 14.4244C80.6042 13.0567 81.5335 11.7486 82.5506 10.5002C82.6207 10.409 82.7224 10.3634 82.8557 10.3634C82.9679 10.3634 83.0626 10.402 83.1397 10.4791C83.2169 10.5563 83.2555 10.6475 83.2555 10.7527C83.2555 10.8509 83.2239 10.935 83.1608 11.0052ZM85.9909 13.0673C85.9488 13.1795 85.8962 13.3057 85.8331 13.446C85.777 13.5863 85.7103 13.7336 85.6332 13.8879C85.57 14.0071 85.5034 14.1018 85.4333 14.1719C85.3701 14.2351 85.286 14.2666 85.1808 14.2666C85.0615 14.2666 84.9668 14.2316 84.8967 14.1614C84.8266 14.0843 84.7915 13.9966 84.7915 13.8984C84.7915 13.8633 84.795 13.8353 84.802 13.8142C84.809 13.7862 84.8266 13.7441 84.8546 13.688C85.037 13.3373 85.1703 13.0322 85.2544 12.7727C85.3456 12.5061 85.4192 12.2291 85.4754 11.9415C85.4263 11.7802 85.3912 11.6434 85.3701 11.5312C85.3491 11.419 85.3386 11.3033 85.3386 11.184C85.3386 10.9526 85.3877 10.7667 85.4859 10.6264C85.5841 10.4791 85.7208 10.4055 85.8962 10.4055C86.0575 10.4055 86.1838 10.4756 86.2749 10.6159C86.3731 10.7562 86.4222 10.928 86.4222 11.1314C86.4222 11.2436 86.4117 11.3559 86.3907 11.4681C86.3696 11.5803 86.3416 11.7206 86.3065 11.8889C86.4678 12.2887 86.6291 12.6429 86.7905 12.9515C86.9518 13.2601 87.0956 13.5442 87.2218 13.8037C87.3481 14.0562 87.4498 14.2947 87.5269 14.5191C87.6111 14.7436 87.6532 14.968 87.6532 15.1925C87.6532 15.487 87.5935 15.7676 87.4743 16.0341C87.3551 16.3007 87.1587 16.5251 86.8851 16.7075C86.9202 16.7145 86.9553 16.718 86.9904 16.718C87.0254 16.718 87.0605 16.718 87.0956 16.718C87.4954 16.718 87.8636 16.6268 88.2003 16.4444C88.5369 16.2621 88.8385 16.0271 89.105 15.7395C89.3786 15.445 89.6206 15.1223 89.831 14.7716C90.0414 14.4139 90.2238 14.0597 90.3781 13.709C90.4482 13.5477 90.5464 13.467 90.6726 13.467C90.7919 13.467 90.8831 13.5091 90.9462 13.5933C91.0163 13.6775 91.0514 13.7686 91.0514 13.8668C91.0514 13.9229 91.0409 13.9756 91.0198 14.0246C90.9427 14.214 90.841 14.4315 90.7147 14.6769C90.5955 14.9154 90.4482 15.1644 90.2729 15.4239C90.1045 15.6764 89.9081 15.9254 89.6837 16.1709C89.4592 16.4164 89.2067 16.6373 88.9262 16.8337C88.6526 17.0231 88.351 17.1739 88.0214 17.2861C87.6917 17.4053 87.3305 17.465 86.9378 17.465C86.4678 17.465 86.0295 17.3808 85.6226 17.2125C85.2229 17.0511 84.8967 16.7811 84.6442 16.4024C84.6021 16.3392 84.5811 16.2726 84.5811 16.2025C84.5811 16.0973 84.6197 16.0061 84.6968 15.9289C84.781 15.8448 84.8757 15.8027 84.9809 15.8027C85.0931 15.8027 85.1878 15.8412 85.2649 15.9184C85.272 15.9324 85.2965 15.957 85.3386 15.992C85.3807 16.0201 85.4298 16.0552 85.4859 16.0973C85.549 16.1323 85.6191 16.1639 85.6963 16.1919C85.7805 16.22 85.8646 16.234 85.9488 16.234C86.1171 16.234 86.2574 16.199 86.3696 16.1288C86.4889 16.0587 86.5835 15.9745 86.6537 15.8763C86.7238 15.7711 86.7729 15.6624 86.801 15.5502C86.836 15.4309 86.8536 15.3292 86.8536 15.2451C86.8536 15.0697 86.8255 14.8944 86.7694 14.719C86.7133 14.5437 86.6397 14.3683 86.5485 14.193C86.4643 14.0176 86.3696 13.8388 86.2644 13.6564C86.1662 13.467 86.075 13.2707 85.9909 13.0673ZM98.4265 14.0246C98.3985 14.0808 98.3388 14.2 98.2477 14.3824C98.1635 14.5577 98.0513 14.7611 97.911 14.9926C97.7777 15.224 97.6199 15.466 97.4375 15.7185C97.2552 15.971 97.0518 16.2025 96.8273 16.4129C96.6029 16.6233 96.3609 16.7986 96.1014 16.9389C95.8419 17.0722 95.5683 17.1388 95.2808 17.1388C94.874 17.1388 94.5303 17.0091 94.2497 16.7495C93.9762 16.49 93.7763 16.1639 93.65 15.7711C93.4116 16.1709 93.1275 16.49 92.7979 16.7285C92.4682 16.96 92.1386 17.0757 91.8089 17.0757C91.5494 17.0757 91.3144 17.0301 91.104 16.9389C90.8936 16.8407 90.7147 16.7075 90.5674 16.5391C90.4202 16.3638 90.3044 16.1604 90.2203 15.9289C90.1431 15.6975 90.1045 15.445 90.1045 15.1714C90.1045 14.6243 90.1957 14.1439 90.3781 13.7301C90.5674 13.3092 90.8059 12.9585 91.0935 12.678C91.3811 12.3974 91.6967 12.187 92.0404 12.0467C92.3911 11.9065 92.7277 11.8363 93.0504 11.8363C93.2678 11.8363 93.4677 11.8679 93.65 11.931C93.8324 11.9871 93.9867 12.0502 94.113 12.1204C94.2462 12.1905 94.3479 12.2571 94.4181 12.3203C94.4882 12.3764 94.5268 12.4079 94.5338 12.415C94.611 12.5061 94.6495 12.6008 94.6495 12.699C94.6495 12.8042 94.611 12.8989 94.5338 12.9831C94.4566 13.0602 94.3655 13.0988 94.2603 13.0988C94.148 13.0988 94.0533 13.0602 93.9762 12.9831C93.9622 12.9691 93.9306 12.9445 93.8815 12.9094C93.8324 12.8674 93.7658 12.8253 93.6816 12.7832C93.5974 12.7411 93.4957 12.706 93.3765 12.678C93.2643 12.6429 93.1345 12.6254 92.9872 12.6254C92.7698 12.6254 92.5383 12.6745 92.2929 12.7727C92.0474 12.8709 91.8229 13.0252 91.6195 13.2356C91.4161 13.439 91.2443 13.6985 91.104 14.0141C90.9707 14.3227 90.9041 14.691 90.9041 15.1188C90.9041 15.2521 90.9181 15.3888 90.9462 15.5291C90.9743 15.6624 91.0233 15.7851 91.0935 15.8974C91.1636 16.0096 91.2583 16.1008 91.3775 16.1709C91.4968 16.241 91.6441 16.2761 91.8194 16.2761C91.9457 16.2761 92.0895 16.234 92.2508 16.1499C92.4191 16.0657 92.5769 15.9359 92.7242 15.7606C92.8785 15.5852 93.0153 15.3643 93.1345 15.0978C93.2608 14.8312 93.3485 14.5156 93.3975 14.1509C93.4116 14.0527 93.4572 13.972 93.5343 13.9089C93.6115 13.8388 93.7027 13.8037 93.8079 13.8037C93.9061 13.8037 93.9902 13.8423 94.0604 13.9194C94.1375 13.9966 94.1796 14.0843 94.1866 14.1825C94.1936 14.3157 94.2077 14.5051 94.2287 14.7506C94.2497 14.9891 94.2953 15.2275 94.3655 15.466C94.4426 15.7045 94.5548 15.9114 94.7021 16.0867C94.8494 16.2621 95.0528 16.3498 95.3123 16.3498C95.4807 16.3498 95.6455 16.3042 95.8068 16.213C95.9752 16.1218 96.1365 16.0026 96.2908 15.8553C96.4521 15.701 96.6029 15.5291 96.7432 15.3398C96.8905 15.1434 97.0237 14.947 97.143 14.7506C97.2622 14.5542 97.3674 14.3648 97.4586 14.1825C97.5498 14.0001 97.6269 13.8423 97.69 13.709C97.7251 13.6319 97.7742 13.5723 97.8373 13.5302C97.9075 13.4881 97.9811 13.467 98.0583 13.467C98.1775 13.467 98.2722 13.5126 98.3423 13.6038C98.4195 13.688 98.4581 13.7792 98.4581 13.8774C98.4581 13.9265 98.4476 13.9756 98.4265 14.0246ZM100.036 16.0131C100.148 15.7816 100.278 15.5291 100.425 15.2556C100.573 14.975 100.731 14.6945 100.899 14.4139C101.067 14.1263 101.243 13.8423 101.425 13.5617C101.614 13.2812 101.811 13.0146 102.014 12.7621C102.218 12.5167 102.421 12.3413 102.624 12.2361C102.835 12.1239 103.031 12.0678 103.213 12.0678C103.578 12.0678 103.848 12.201 104.024 12.4676C104.199 12.7341 104.287 13.0637 104.287 13.4565C104.287 13.5477 104.28 13.6599 104.266 13.7932C104.259 13.9194 104.248 14.0562 104.234 14.2035C104.227 14.3508 104.216 14.5016 104.202 14.6559C104.195 14.8032 104.192 14.9435 104.192 15.0767C104.192 15.2451 104.199 15.4064 104.213 15.5607C104.234 15.715 104.269 15.8518 104.318 15.971C104.367 16.0832 104.437 16.1744 104.529 16.2445C104.62 16.3077 104.739 16.3392 104.886 16.3392C105.153 16.3392 105.412 16.2375 105.665 16.0341C105.917 15.8237 106.149 15.5782 106.359 15.2977C106.577 15.0101 106.763 14.719 106.917 14.4244C107.078 14.1299 107.197 13.8914 107.275 13.709C107.31 13.6319 107.359 13.5723 107.422 13.5302C107.492 13.4881 107.566 13.467 107.643 13.467C107.762 13.467 107.857 13.5126 107.927 13.6038C108.004 13.688 108.043 13.7792 108.043 13.8774C108.043 13.9265 108.032 13.9756 108.011 14.0246C107.983 14.0808 107.927 14.1965 107.843 14.3718C107.758 14.5472 107.646 14.7506 107.506 14.982C107.373 15.2065 107.215 15.4485 107.033 15.708C106.85 15.9605 106.647 16.1919 106.422 16.4024C106.205 16.6128 105.966 16.7881 105.707 16.9284C105.454 17.0687 105.188 17.1388 104.907 17.1388C104.592 17.1388 104.336 17.0792 104.139 16.96C103.943 16.8337 103.789 16.6724 103.676 16.476C103.564 16.2726 103.487 16.0517 103.445 15.8132C103.41 15.5677 103.392 15.3222 103.392 15.0767C103.392 14.9715 103.396 14.8523 103.403 14.719C103.417 14.5858 103.431 14.4455 103.445 14.2982C103.466 14.1509 103.48 14.0036 103.487 13.8563C103.501 13.709 103.508 13.5687 103.508 13.4355C103.508 13.211 103.473 13.0602 103.403 12.9831C103.333 12.8989 103.27 12.8568 103.213 12.8568C103.101 12.8568 102.972 12.9235 102.824 13.0567C102.684 13.183 102.533 13.3513 102.372 13.5617C102.218 13.7721 102.056 14.0106 101.888 14.2771C101.727 14.5367 101.572 14.7962 101.425 15.0557C101.285 15.3152 101.151 15.5642 101.025 15.8027C100.906 16.0341 100.811 16.227 100.741 16.3813C100.601 16.6759 100.461 16.8723 100.32 16.9705C100.18 17.0757 100.036 17.1283 99.8889 17.1283C99.6855 17.1283 99.5207 17.0687 99.3944 16.9494C99.2752 16.8232 99.2156 16.6478 99.2156 16.4234C99.2156 16.3743 99.2226 16.2796 99.2366 16.1393C99.2506 15.992 99.2682 15.8202 99.2892 15.6238C99.3103 15.4204 99.3313 15.203 99.3523 14.9715C99.3734 14.7401 99.3944 14.5121 99.4155 14.2877C99.4365 14.0562 99.454 13.8423 99.4681 13.6459C99.4821 13.4495 99.4891 13.2847 99.4891 13.1514C99.4891 12.9761 99.4821 12.8077 99.4681 12.6464C99.454 12.4851 99.426 12.3869 99.3839 12.3518C99.3208 12.3729 99.2086 12.5061 99.0472 12.7516C98.8859 12.9901 98.679 13.4144 98.4265 14.0246C98.3914 14.1018 98.3388 14.1614 98.2687 14.2035C98.1986 14.2456 98.1249 14.2666 98.0478 14.2666C97.9285 14.2666 97.8338 14.2281 97.7637 14.1509C97.6936 14.0667 97.6585 13.972 97.6585 13.8668C97.6585 13.8177 97.669 13.7651 97.69 13.709C98.0057 12.9585 98.3003 12.4079 98.5738 12.0573C98.8544 11.6995 99.1314 11.5207 99.4049 11.5207C99.5663 11.5207 99.703 11.5628 99.8153 11.6469C99.9275 11.7241 100.015 11.8293 100.078 11.9626C100.148 12.0958 100.198 12.2431 100.226 12.4044C100.261 12.5658 100.278 12.7306 100.278 12.8989C100.278 13.0252 100.268 13.2216 100.247 13.4881C100.233 13.7546 100.212 14.0422 100.183 14.3508C100.155 14.6524 100.127 14.954 100.099 15.2556C100.078 15.5572 100.057 15.8097 100.036 16.0131ZM111.378 13.8984C111.721 15.5186 112.219 16.3287 112.872 16.3287C113.124 16.3287 113.366 16.2375 113.598 16.0552C113.829 15.8658 114.043 15.6378 114.239 15.3713C114.443 15.0978 114.622 14.8102 114.776 14.5086C114.93 14.207 115.056 13.944 115.155 13.7195C115.225 13.5512 115.348 13.467 115.523 13.467C115.635 13.467 115.73 13.5091 115.807 13.5933C115.884 13.6775 115.923 13.7686 115.923 13.8668C115.923 13.9229 115.912 13.972 115.891 14.0141C115.842 14.1334 115.768 14.2947 115.67 14.4981C115.579 14.6945 115.463 14.9084 115.323 15.1399C115.19 15.3643 115.039 15.5958 114.871 15.8342C114.702 16.0727 114.516 16.2866 114.313 16.476C114.11 16.6654 113.892 16.8232 113.661 16.9494C113.436 17.0687 113.198 17.1283 112.945 17.1283C112.475 17.1283 112.072 16.967 111.735 16.6443C111.399 16.3147 111.108 15.7746 110.862 15.0241C110.525 15.7395 110.185 16.2586 109.842 16.5812C109.498 16.9038 109.126 17.0652 108.726 17.0652C108.516 17.0652 108.313 17.0301 108.116 16.96C107.92 16.8968 107.748 16.7881 107.601 16.6338C107.453 16.4795 107.334 16.2831 107.243 16.0446C107.152 15.7992 107.106 15.5011 107.106 15.1504C107.106 14.6664 107.19 14.221 107.359 13.8142C107.527 13.4074 107.744 13.0602 108.011 12.7727C108.278 12.4781 108.572 12.2501 108.895 12.0888C109.224 11.9275 109.551 11.8468 109.873 11.8468C109.978 11.8468 110.07 11.8854 110.147 11.9626C110.224 12.0327 110.262 12.1239 110.262 12.2361C110.262 12.3343 110.231 12.422 110.168 12.4991C110.105 12.5763 110.02 12.6219 109.915 12.6359C109.705 12.664 109.48 12.7306 109.242 12.8358C109.003 12.941 108.783 13.0953 108.579 13.2987C108.383 13.4951 108.218 13.7476 108.085 14.0562C107.958 14.3648 107.895 14.7331 107.895 15.1609C107.895 15.5116 107.965 15.7851 108.106 15.9815C108.253 16.1779 108.463 16.2761 108.737 16.2761C108.849 16.2761 108.968 16.2481 109.095 16.1919C109.221 16.1288 109.354 16.0096 109.494 15.8342C109.642 15.6589 109.8 15.4099 109.968 15.0873C110.143 14.7646 110.336 14.3403 110.547 13.8142C110.427 13.197 110.319 12.4851 110.22 11.6785C110.122 10.8719 110.073 9.97062 110.073 8.97465C110.073 8.53979 110.087 8.08739 110.115 7.61746C110.143 7.14052 110.189 6.6776 110.252 6.22871C110.315 5.77281 110.399 5.34145 110.504 4.93465C110.61 4.52784 110.736 4.17013 110.883 3.86152C111.037 3.55291 111.216 3.31093 111.42 3.13558C111.623 2.95322 111.855 2.86204 112.114 2.86204C112.346 2.86204 112.542 2.92517 112.703 3.05142C112.865 3.17767 112.994 3.35302 113.093 3.57746C113.198 3.8019 113.275 4.07194 113.324 4.38756C113.373 4.70319 113.398 5.05038 113.398 5.42913C113.398 6.24274 113.328 7.05635 113.187 7.86996C113.047 8.68357 112.872 9.46211 112.661 10.2056C112.458 10.9491 112.24 11.6364 112.009 12.2677C111.777 12.8989 111.567 13.4425 111.378 13.8984ZM112.609 5.41861C112.609 5.24326 112.602 5.05388 112.588 4.85048C112.581 4.64708 112.556 4.4577 112.514 4.28236C112.479 4.09999 112.43 3.9492 112.367 3.82996C112.303 3.71072 112.219 3.65111 112.114 3.65111C111.939 3.65111 111.774 3.80541 111.62 4.11402C111.472 4.42263 111.343 4.82944 111.23 5.33444C111.118 5.83243 111.027 6.40055 110.957 7.03881C110.894 7.67006 110.862 8.30833 110.862 8.95361C110.862 9.57083 110.887 10.1881 110.936 10.8053C110.985 11.4225 111.041 11.9731 111.104 12.457C111.308 11.917 111.5 11.3629 111.683 10.7948C111.865 10.2196 112.023 9.63395 112.156 9.03777C112.296 8.44159 112.405 7.8419 112.482 7.23871C112.567 6.6285 112.609 6.0218 112.609 5.41861ZM116.27 12.6359C116.242 12.8253 116.207 13.0041 116.165 13.1725C116.123 13.3338 116.08 13.4776 116.038 13.6038C116.003 13.7231 115.972 13.8212 115.944 13.8984C115.916 13.9756 115.898 14.0176 115.891 14.0246C115.821 14.186 115.698 14.2666 115.523 14.2666C115.425 14.2666 115.333 14.2316 115.249 14.1614C115.165 14.0843 115.123 13.9896 115.123 13.8774C115.123 13.8353 115.13 13.8037 115.144 13.7827C115.158 13.7616 115.179 13.7195 115.207 13.6564C115.235 13.5933 115.27 13.4881 115.312 13.3408C115.355 13.1935 115.407 12.9656 115.47 12.6569C115.351 12.6569 115.228 12.6534 115.102 12.6464C114.976 12.6394 114.86 12.6149 114.755 12.5728C114.643 12.5307 114.551 12.4641 114.481 12.3729C114.411 12.2817 114.376 12.1554 114.376 11.9941C114.376 11.8749 114.411 11.7136 114.481 11.5102C114.544 11.3068 114.632 11.1069 114.744 10.9105C114.857 10.7141 114.983 10.5458 115.123 10.4055C115.263 10.2582 115.404 10.1845 115.544 10.1845C115.705 10.1845 115.835 10.2442 115.933 10.3634C116.038 10.4826 116.119 10.6299 116.175 10.8053C116.231 10.9736 116.27 11.1525 116.291 11.3418C116.319 11.5312 116.333 11.696 116.333 11.8363C116.452 11.8363 116.568 11.8363 116.68 11.8363C116.799 11.8293 116.912 11.8258 117.017 11.8258C117.417 11.8258 117.722 11.9135 117.932 12.0888C118.143 12.2642 118.248 12.5517 118.248 12.9515C118.248 13.1128 118.237 13.2812 118.216 13.4565C118.195 13.6319 118.171 13.8142 118.143 14.0036C118.114 14.186 118.09 14.3683 118.069 14.5507C118.048 14.7331 118.037 14.9119 118.037 15.0873C118.037 15.3398 118.072 15.5502 118.143 15.7185C118.213 15.8798 118.3 16.0096 118.406 16.1078C118.511 16.206 118.623 16.2761 118.742 16.3182C118.861 16.3533 118.97 16.3708 119.068 16.3708C119.37 16.3708 119.654 16.2726 119.921 16.0762C120.187 15.8798 120.433 15.6449 120.657 15.3713C120.881 15.0908 121.081 14.7962 121.257 14.4876C121.439 14.179 121.59 13.9089 121.709 13.6775C121.744 13.6143 121.793 13.5652 121.856 13.5302C121.92 13.4951 121.986 13.4776 122.056 13.4776C122.183 13.4776 122.281 13.5196 122.351 13.6038C122.421 13.681 122.456 13.7686 122.456 13.8668C122.456 13.937 122.442 14.0001 122.414 14.0562C122.253 14.3438 122.063 14.6699 121.846 15.0346C121.635 15.3924 121.393 15.729 121.12 16.0446C120.846 16.3603 120.538 16.6268 120.194 16.8442C119.857 17.0617 119.486 17.1704 119.079 17.1704C118.826 17.1704 118.588 17.1213 118.363 17.0231C118.139 16.9319 117.943 16.7986 117.774 16.6233C117.613 16.4409 117.483 16.22 117.385 15.9605C117.287 15.694 117.238 15.3959 117.238 15.0662C117.238 14.7155 117.273 14.3683 117.343 14.0246C117.413 13.674 117.448 13.3408 117.448 13.0252C117.448 12.8919 117.417 12.7937 117.353 12.7306C117.297 12.6604 117.168 12.6254 116.964 12.6254C116.866 12.6254 116.757 12.6254 116.638 12.6254C116.526 12.6254 116.403 12.6289 116.27 12.6359ZM115.565 11.8574C115.565 11.8083 115.561 11.7451 115.554 11.668C115.554 11.5838 115.547 11.5032 115.533 11.426C115.526 11.3488 115.512 11.2822 115.491 11.2261C115.477 11.17 115.46 11.1419 115.439 11.1419C115.418 11.1419 115.39 11.17 115.355 11.2261C115.326 11.2752 115.295 11.3383 115.26 11.4155C115.225 11.4856 115.193 11.5628 115.165 11.6469C115.137 11.7311 115.116 11.8012 115.102 11.8574H115.565ZM126.559 15.8027C126.384 15.8027 126.23 15.7886 126.096 15.7606C125.991 15.971 125.865 16.1674 125.718 16.3498C125.57 16.5251 125.398 16.6794 125.202 16.8127C125.013 16.9459 124.799 17.0511 124.56 17.1283C124.322 17.2054 124.062 17.244 123.782 17.244C123.452 17.244 123.15 17.1844 122.877 17.0652C122.603 16.9529 122.365 16.7951 122.162 16.5917C121.958 16.3813 121.8 16.1323 121.688 15.8448C121.576 15.5502 121.52 15.2275 121.52 14.8768C121.52 14.4279 121.6 14.0387 121.762 13.709C121.923 13.3724 122.109 13.0953 122.319 12.8779C122.53 12.6534 122.74 12.4886 122.951 12.3834C123.161 12.2712 123.319 12.2151 123.424 12.2151C123.543 12.2151 123.631 12.2466 123.687 12.3098C123.75 12.3729 123.782 12.457 123.782 12.5623C123.782 12.6815 123.743 12.7727 123.666 12.8358C123.596 12.8919 123.505 12.948 123.392 13.0041C123.28 13.0602 123.161 13.1409 123.035 13.2461C122.908 13.3443 122.789 13.4706 122.677 13.6249C122.572 13.7792 122.484 13.9615 122.414 14.1719C122.344 14.3824 122.309 14.6173 122.309 14.8768C122.309 15.1083 122.344 15.3257 122.414 15.5291C122.484 15.7255 122.586 15.8974 122.719 16.0446C122.852 16.1849 123.01 16.2971 123.193 16.3813C123.375 16.4585 123.578 16.497 123.803 16.497C124.203 16.497 124.532 16.4059 124.792 16.2235C125.058 16.0341 125.262 15.7957 125.402 15.5081C124.988 15.2907 124.648 14.982 124.381 14.5823C124.115 14.1825 123.982 13.7336 123.982 13.2356C123.982 12.8358 124.076 12.5096 124.266 12.2571C124.462 12.0046 124.718 11.8784 125.034 11.8784C125.223 11.8784 125.402 11.924 125.57 12.0152C125.739 12.1063 125.886 12.2501 126.012 12.4465C126.145 12.6429 126.251 12.8954 126.328 13.204C126.405 13.5126 126.443 13.8809 126.443 14.3087C126.443 14.5332 126.415 14.7681 126.359 15.0136C126.401 15.0206 126.443 15.0241 126.486 15.0241C126.528 15.0241 126.573 15.0241 126.622 15.0241C126.861 15.0241 127.075 14.9961 127.264 14.94C127.453 14.8838 127.625 14.7997 127.78 14.6875C127.934 14.5752 128.071 14.4315 128.19 14.2561C128.316 14.0808 128.435 13.8774 128.548 13.6459C128.569 13.6038 128.614 13.5652 128.684 13.5302C128.755 13.4881 128.825 13.467 128.895 13.467C128.986 13.467 129.07 13.5056 129.147 13.5828C129.232 13.6529 129.274 13.7476 129.274 13.8668C129.274 13.9229 129.26 13.9861 129.232 14.0562C129.203 14.1193 129.175 14.179 129.147 14.2351C129.028 14.4455 128.888 14.6489 128.727 14.8453C128.572 15.0346 128.386 15.203 128.169 15.3503C127.958 15.4906 127.72 15.6028 127.453 15.6869C127.187 15.7711 126.889 15.8097 126.559 15.8027ZM124.76 13.1514C124.76 13.2847 124.778 13.425 124.813 13.5723C124.848 13.7195 124.9 13.8668 124.971 14.0141C125.048 14.1544 125.139 14.2912 125.244 14.4244C125.356 14.5507 125.486 14.6594 125.633 14.7506C125.654 14.6033 125.665 14.4595 125.665 14.3192C125.665 14.1299 125.651 13.937 125.623 13.7406C125.595 13.5442 125.553 13.3653 125.497 13.204C125.448 13.0357 125.384 12.9024 125.307 12.8042C125.23 12.699 125.139 12.6464 125.034 12.6464C124.992 12.6464 124.935 12.678 124.865 12.7411C124.795 12.8042 124.76 12.941 124.76 13.1514ZM157.922 3.40913C157.62 3.851 157.284 4.38055 156.912 4.99777C156.54 5.61499 156.144 6.30586 155.723 7.07038C155.365 7.70864 155.011 8.38899 154.66 9.11142C154.317 9.82684 153.987 10.5387 153.671 11.2471C153.356 11.9485 153.065 12.6254 152.798 13.2777C152.532 13.9229 152.3 14.4946 152.104 14.9926C151.907 15.4835 151.753 15.8798 151.641 16.1814C151.529 16.476 151.473 16.6268 151.473 16.6338C151.402 16.8092 151.276 16.8968 151.094 16.8968C151.003 16.8968 150.922 16.8688 150.852 16.8127C150.782 16.7495 150.736 16.6724 150.715 16.5812C150.715 16.5742 150.68 16.4269 150.61 16.1393C150.547 15.8448 150.459 15.4555 150.347 14.9715C150.235 14.4806 150.105 13.9194 149.958 13.2882C149.817 12.6499 149.666 11.9871 149.505 11.2998C149.351 10.6054 149.193 9.90399 149.032 9.19559C148.87 8.48718 148.72 7.81385 148.579 7.17558C148.109 8.50121 147.636 9.67604 147.159 10.7001C146.689 11.7171 146.205 12.6043 145.707 13.3618C145.209 14.1123 144.694 14.7436 144.161 15.2556C143.635 15.7676 143.08 16.1814 142.498 16.497C141.923 16.8057 141.316 17.0266 140.678 17.1599C140.047 17.2931 139.377 17.3598 138.669 17.3598C138.304 17.3598 137.915 17.3177 137.501 17.2335C137.087 17.1563 136.677 17.0336 136.27 16.8653C135.863 16.6969 135.474 16.4865 135.102 16.234C134.73 15.9815 134.401 15.6834 134.113 15.3398C133.826 14.9891 133.598 14.5963 133.429 14.1614C133.261 13.7195 133.177 13.2286 133.177 12.6885C133.177 12.1204 133.296 11.6013 133.535 11.1314C133.773 10.6545 134.096 10.2477 134.502 9.911C134.909 9.56732 135.379 9.30079 135.912 9.11142C136.452 8.92204 137.02 8.82736 137.617 8.82736C138.051 8.82736 138.441 8.86593 138.784 8.94309C139.135 9.01322 139.444 9.1044 139.71 9.21663C139.977 9.32885 140.205 9.45159 140.394 9.58486C140.583 9.71812 140.741 9.84086 140.868 9.95309C140.994 10.0653 141.085 10.1635 141.141 10.2477C141.197 10.3248 141.229 10.3634 141.236 10.3634C141.278 10.4406 141.299 10.5142 141.299 10.5843C141.299 10.6825 141.26 10.7737 141.183 10.8579C141.113 10.942 141.018 10.9841 140.899 10.9841C140.759 10.9841 140.647 10.9245 140.562 10.8053C140.555 10.7983 140.499 10.7351 140.394 10.6159C140.289 10.4896 140.117 10.3529 139.879 10.2056C139.64 10.0583 139.332 9.92503 138.953 9.80579C138.581 9.68656 138.125 9.62694 137.585 9.62694C137.094 9.62694 136.628 9.70409 136.186 9.8584C135.751 10.0057 135.369 10.2161 135.039 10.4896C134.716 10.7632 134.457 11.0893 134.26 11.4681C134.071 11.8398 133.976 12.2501 133.976 12.699C133.976 13.1409 134.05 13.5442 134.197 13.9089C134.345 14.2736 134.541 14.5998 134.787 14.8874C135.032 15.1749 135.316 15.4239 135.639 15.6343C135.961 15.8448 136.298 16.0201 136.649 16.1604C136.999 16.2936 137.35 16.3953 137.701 16.4655C138.058 16.5286 138.395 16.5602 138.711 16.5602C139.244 16.5602 139.763 16.5216 140.268 16.4444C140.78 16.3603 141.281 16.206 141.772 15.9815C142.27 15.7571 142.758 15.4485 143.235 15.0557C143.712 14.6629 144.185 14.1509 144.655 13.5196C145.125 12.8884 145.588 12.1274 146.044 11.2366C146.507 10.3459 146.97 9.29378 147.433 8.08038C147.573 7.71565 147.71 7.32288 147.843 6.90204C147.976 6.48121 148.113 6.05687 148.253 5.62902C148.134 5.0118 148.046 4.48576 147.99 4.0509C147.941 3.61604 147.917 3.25482 147.917 2.96725C147.917 2.65864 147.941 2.41315 147.99 2.23079C148.039 2.04843 148.102 1.91166 148.18 1.82048C148.257 1.72229 148.341 1.66267 148.432 1.64163C148.523 1.61357 148.611 1.59954 148.695 1.59954C148.765 1.59954 148.842 1.61357 148.927 1.64163C149.018 1.66968 149.098 1.73281 149.168 1.831C149.246 1.92218 149.309 2.05895 149.358 2.24131C149.407 2.42367 149.432 2.66916 149.432 2.97777C149.432 3.31444 149.4 3.70371 149.337 4.14558C149.274 4.58746 149.179 5.07492 149.053 5.60798C149.144 6.03583 149.249 6.51277 149.368 7.03881C149.488 7.56486 149.61 8.11194 149.737 8.68006C149.863 9.24118 149.993 9.81631 150.126 10.4055C150.259 10.9946 150.389 11.5698 150.515 12.1309C150.641 12.692 150.761 13.2286 150.873 13.7406C150.992 14.2526 151.101 14.7155 151.199 15.1293C151.388 14.6524 151.62 14.0773 151.893 13.4039C152.167 12.7236 152.472 12.0046 152.809 11.2471C153.145 10.4826 153.5 9.7076 153.871 8.92204C154.25 8.12947 154.636 7.38249 155.029 6.68111C155.583 5.68513 156.091 4.83295 156.554 4.12454C157.017 3.40913 157.417 2.81996 157.753 2.35704C158.09 1.89413 158.353 1.55395 158.543 1.33652C158.739 1.11208 158.844 0.989334 158.858 0.968293C158.935 0.89114 159.03 0.852563 159.142 0.852563C159.261 0.852563 159.356 0.894647 159.426 0.978813C159.503 1.05597 159.542 1.14715 159.542 1.25236C159.542 1.30145 159.532 1.35055 159.51 1.39965C159.51 1.40666 159.468 1.51187 159.384 1.71527C159.307 1.91166 159.205 2.1852 159.079 2.5359C158.96 2.87958 158.827 3.28638 158.679 3.75631C158.532 4.21923 158.388 4.72072 158.248 5.26079C158.108 5.79385 157.981 6.35496 157.869 6.94413C157.764 7.52628 157.687 8.10843 157.638 8.69059C157.617 8.95711 157.599 9.23767 157.585 9.53225C157.571 9.81982 157.564 10.1109 157.564 10.4055C157.564 10.8684 157.585 11.3348 157.627 11.8048C157.669 12.2747 157.739 12.7271 157.838 13.1619C157.936 13.5968 158.069 14.0071 158.237 14.3929C158.406 14.7716 158.613 15.1048 158.858 15.3924C159.104 15.6799 159.395 15.9114 159.731 16.0867C160.075 16.2621 160.471 16.3568 160.92 16.3708C161.032 16.3778 161.12 16.4269 161.183 16.5181C161.253 16.6023 161.288 16.6934 161.288 16.7916C161.288 16.8898 161.25 16.9775 161.173 17.0546C161.096 17.1318 161.004 17.1704 160.899 17.1704C160.787 17.1704 160.675 17.1599 160.563 17.1388C160.058 17.0687 159.612 16.9249 159.226 16.7075C158.841 16.483 158.507 16.2095 158.227 15.8868C157.946 15.5572 157.711 15.1854 157.522 14.7716C157.34 14.3508 157.192 13.9019 157.08 13.425C156.968 12.948 156.887 12.4535 156.838 11.9415C156.796 11.4225 156.775 10.9 156.775 10.3739C156.775 9.74968 156.807 9.12545 156.87 8.50121C156.933 7.87697 157.017 7.27027 157.122 6.68111C157.227 6.08493 157.35 5.50979 157.49 4.95569C157.631 4.40159 157.775 3.88607 157.922 3.40913ZM170.031 14.0246C170.003 14.0808 169.944 14.2 169.852 14.3824C169.768 14.5577 169.656 14.7611 169.516 14.9926C169.383 15.224 169.225 15.466 169.042 15.7185C168.86 15.971 168.657 16.2025 168.432 16.4129C168.208 16.6233 167.966 16.7986 167.706 16.9389C167.447 17.0722 167.173 17.1388 166.886 17.1388C166.479 17.1388 166.135 17.0091 165.855 16.7495C165.581 16.49 165.381 16.1639 165.255 15.7711C165.016 16.1709 164.732 16.49 164.403 16.7285C164.073 16.96 163.743 17.0757 163.414 17.0757C163.154 17.0757 162.919 17.0301 162.709 16.9389C162.498 16.8407 162.32 16.7075 162.172 16.5391C162.025 16.3638 161.909 16.1604 161.825 15.9289C161.748 15.6975 161.709 15.445 161.709 15.1714C161.709 14.6243 161.8 14.1439 161.983 13.7301C162.172 13.3092 162.411 12.9585 162.698 12.678C162.986 12.3974 163.301 12.187 163.645 12.0467C163.996 11.9065 164.333 11.8363 164.655 11.8363C164.873 11.8363 165.072 11.8679 165.255 11.931C165.437 11.9871 165.592 12.0502 165.718 12.1204C165.851 12.1905 165.953 12.2571 166.023 12.3203C166.093 12.3764 166.132 12.4079 166.139 12.415C166.216 12.5061 166.254 12.6008 166.254 12.699C166.254 12.8042 166.216 12.8989 166.139 12.9831C166.061 13.0602 165.97 13.0988 165.865 13.0988C165.753 13.0988 165.658 13.0602 165.581 12.9831C165.567 12.9691 165.535 12.9445 165.486 12.9094C165.437 12.8674 165.371 12.8253 165.286 12.7832C165.202 12.7411 165.101 12.706 164.981 12.678C164.869 12.6429 164.739 12.6254 164.592 12.6254C164.375 12.6254 164.143 12.6745 163.898 12.7727C163.652 12.8709 163.428 13.0252 163.224 13.2356C163.021 13.439 162.849 13.6985 162.709 14.0141C162.576 14.3227 162.509 14.691 162.509 15.1188C162.509 15.2521 162.523 15.3888 162.551 15.5291C162.579 15.6624 162.628 15.7851 162.698 15.8974C162.768 16.0096 162.863 16.1008 162.982 16.1709C163.102 16.241 163.249 16.2761 163.424 16.2761C163.55 16.2761 163.694 16.234 163.856 16.1499C164.024 16.0657 164.182 15.9359 164.329 15.7606C164.483 15.5852 164.62 15.3643 164.739 15.0978C164.866 14.8312 164.953 14.5156 165.002 14.1509C165.016 14.0527 165.062 13.972 165.139 13.9089C165.216 13.8388 165.307 13.8037 165.413 13.8037C165.511 13.8037 165.595 13.8423 165.665 13.9194C165.742 13.9966 165.784 14.0843 165.791 14.1825C165.798 14.3157 165.812 14.5051 165.833 14.7506C165.855 14.9891 165.9 15.2275 165.97 15.466C166.047 15.7045 166.16 15.9114 166.307 16.0867C166.454 16.2621 166.658 16.3498 166.917 16.3498C167.085 16.3498 167.25 16.3042 167.412 16.213C167.58 16.1218 167.741 16.0026 167.896 15.8553C168.057 15.701 168.208 15.5291 168.348 15.3398C168.495 15.1434 168.629 14.947 168.748 14.7506C168.867 14.5542 168.972 14.3648 169.063 14.1825C169.155 14.0001 169.232 13.8423 169.295 13.709C169.33 13.6319 169.379 13.5723 169.442 13.5302C169.512 13.4881 169.586 13.467 169.663 13.467C169.782 13.467 169.877 13.5126 169.947 13.6038C170.024 13.688 170.063 13.7792 170.063 13.8774C170.063 13.9265 170.052 13.9756 170.031 14.0246ZM170.41 12.6359C170.382 12.8253 170.347 13.0041 170.305 13.1725C170.263 13.3338 170.221 13.4776 170.179 13.6038C170.144 13.7231 170.112 13.8212 170.084 13.8984C170.056 13.9756 170.038 14.0176 170.031 14.0246C169.961 14.186 169.838 14.2666 169.663 14.2666C169.565 14.2666 169.474 14.2316 169.39 14.1614C169.305 14.0843 169.263 13.9896 169.263 13.8774C169.263 13.8353 169.27 13.8037 169.284 13.7827C169.298 13.7616 169.319 13.7195 169.347 13.6564C169.376 13.5933 169.411 13.4881 169.453 13.3408C169.495 13.1935 169.547 12.9656 169.61 12.6569C169.491 12.6569 169.368 12.6534 169.242 12.6464C169.116 12.6394 169 12.6149 168.895 12.5728C168.783 12.5307 168.692 12.4641 168.622 12.3729C168.551 12.2817 168.516 12.1554 168.516 11.9941C168.516 11.8749 168.551 11.7136 168.622 11.5102C168.685 11.3068 168.772 11.1069 168.885 10.9105C168.997 10.7141 169.123 10.5458 169.263 10.4055C169.404 10.2582 169.544 10.1845 169.684 10.1845C169.845 10.1845 169.975 10.2442 170.073 10.3634C170.179 10.4826 170.259 10.6299 170.315 10.8053C170.371 10.9736 170.41 11.1525 170.431 11.3418C170.459 11.5312 170.473 11.696 170.473 11.8363C170.592 11.8363 170.708 11.8363 170.82 11.8363C170.94 11.8293 171.052 11.8258 171.157 11.8258C171.557 11.8258 171.862 11.9135 172.072 12.0888C172.283 12.2642 172.388 12.5517 172.388 12.9515C172.388 13.1128 172.377 13.2812 172.356 13.4565C172.335 13.6319 172.311 13.8142 172.283 14.0036C172.255 14.186 172.23 14.3683 172.209 14.5507C172.188 14.7331 172.178 14.9119 172.178 15.0873C172.178 15.3398 172.213 15.5502 172.283 15.7185C172.353 15.8798 172.441 16.0096 172.546 16.1078C172.651 16.206 172.763 16.2761 172.882 16.3182C173.002 16.3533 173.11 16.3708 173.209 16.3708C173.51 16.3708 173.794 16.2726 174.061 16.0762C174.327 15.8798 174.573 15.6449 174.797 15.3713C175.022 15.0908 175.222 14.7962 175.397 14.4876C175.579 14.179 175.73 13.9089 175.849 13.6775C175.884 13.6143 175.933 13.5652 175.997 13.5302C176.06 13.4951 176.126 13.4776 176.197 13.4776C176.323 13.4776 176.421 13.5196 176.491 13.6038C176.561 13.681 176.596 13.7686 176.596 13.8668C176.596 13.937 176.582 14.0001 176.554 14.0562C176.393 14.3438 176.204 14.6699 175.986 15.0346C175.776 15.3924 175.534 15.729 175.26 16.0446C174.987 16.3603 174.678 16.6268 174.334 16.8442C173.998 17.0617 173.626 17.1704 173.219 17.1704C172.967 17.1704 172.728 17.1213 172.504 17.0231C172.279 16.9319 172.083 16.7986 171.915 16.6233C171.753 16.4409 171.623 16.22 171.525 15.9605C171.427 15.694 171.378 15.3959 171.378 15.0662C171.378 14.7155 171.413 14.3683 171.483 14.0246C171.553 13.674 171.588 13.3408 171.588 13.0252C171.588 12.8919 171.557 12.7937 171.494 12.7306C171.438 12.6604 171.308 12.6254 171.104 12.6254C171.006 12.6254 170.898 12.6254 170.778 12.6254C170.666 12.6254 170.543 12.6289 170.41 12.6359ZM169.705 11.8574C169.705 11.8083 169.702 11.7451 169.695 11.668C169.695 11.5838 169.688 11.5032 169.674 11.426C169.667 11.3488 169.653 11.2822 169.632 11.2261C169.617 11.17 169.6 11.1419 169.579 11.1419C169.558 11.1419 169.53 11.17 169.495 11.2261C169.467 11.2752 169.435 11.3383 169.4 11.4155C169.365 11.4856 169.333 11.5628 169.305 11.6469C169.277 11.7311 169.256 11.8012 169.242 11.8574H169.705ZM184.371 6.42861C184.371 6.54083 184.333 6.63201 184.255 6.70215C184.178 6.76527 184.084 6.79683 183.971 6.79683H178.637V6.91256C178.637 7.34041 178.606 7.79631 178.543 8.28027C178.48 8.76423 178.392 9.24819 178.28 9.73215C178.174 10.2091 178.052 10.6755 177.911 11.1314C177.778 11.5873 177.638 12.0082 177.491 12.3939C177.35 12.7797 177.21 13.1163 177.07 13.4039C176.929 13.6845 176.803 13.8949 176.691 14.0352C176.782 14.3578 176.891 14.6594 177.017 14.94C177.143 15.2135 177.284 15.4555 177.438 15.6659C177.599 15.8693 177.771 16.0306 177.953 16.1499C178.136 16.2691 178.332 16.3287 178.543 16.3287C178.788 16.3287 179.03 16.227 179.269 16.0236C179.514 15.8132 179.739 15.5677 179.942 15.2871C180.152 14.9996 180.335 14.712 180.489 14.4244C180.65 14.1299 180.766 13.8949 180.836 13.7195C180.906 13.5512 181.029 13.467 181.204 13.467C181.324 13.467 181.418 13.5091 181.488 13.5933C181.566 13.6775 181.604 13.7686 181.604 13.8668C181.604 13.9159 181.594 13.965 181.573 14.0141C181.552 14.0632 181.499 14.1754 181.415 14.3508C181.338 14.5261 181.232 14.7295 181.099 14.961C180.973 15.1925 180.822 15.4379 180.647 15.6975C180.478 15.95 180.286 16.1814 180.068 16.3918C179.858 16.6023 179.63 16.7776 179.384 16.9179C179.139 17.0582 178.879 17.1283 178.606 17.1283C178.122 17.1283 177.687 16.9705 177.301 16.6549C176.915 16.3392 176.586 15.8974 176.312 15.3292C176.046 14.7611 175.842 14.0878 175.702 13.3092C175.562 12.5307 175.492 11.6785 175.492 10.7527C175.492 10.5212 175.495 10.2512 175.502 9.94256C175.509 9.62694 175.523 9.29729 175.544 8.95361C175.565 8.60291 175.597 8.2452 175.639 7.88048C175.681 7.50874 175.737 7.14753 175.807 6.79683H172.03C171.918 6.79683 171.823 6.76527 171.746 6.70215C171.669 6.63201 171.63 6.54083 171.63 6.42861C171.63 6.31638 171.669 6.22871 171.746 6.16558C171.823 6.09545 171.918 6.06038 172.03 6.06038H175.986C176.056 5.80788 176.137 5.57642 176.228 5.366C176.326 5.15558 176.435 4.97322 176.554 4.81892C176.68 4.66461 176.817 4.54538 176.965 4.46121C177.119 4.37003 177.287 4.32444 177.47 4.32444C177.645 4.32444 177.796 4.37003 177.922 4.46121C178.055 4.54538 178.167 4.66461 178.259 4.81892C178.35 4.97322 178.42 5.15558 178.469 5.366C178.525 5.57642 178.567 5.80788 178.595 6.06038H183.971C184.084 6.06038 184.178 6.09545 184.255 6.16558C184.333 6.22871 184.371 6.31638 184.371 6.42861ZM176.449 12.9831C176.659 12.5202 176.849 12.0222 177.017 11.4891C177.192 10.9491 177.34 10.4055 177.459 9.8584C177.585 9.31131 177.68 8.77475 177.743 8.24871C177.813 7.72267 177.848 7.23871 177.848 6.79683H176.607C176.509 7.2317 176.428 7.77177 176.365 8.41704C176.309 9.05531 176.281 9.83385 176.281 10.7527C176.281 11.2647 176.295 11.696 176.323 12.0467C176.351 12.3904 176.393 12.7025 176.449 12.9831ZM177.427 5.1135C177.364 5.1135 177.273 5.18364 177.154 5.32392C177.035 5.45718 176.915 5.70267 176.796 6.06038H177.806C177.771 5.76579 177.719 5.53433 177.648 5.366C177.585 5.19767 177.512 5.1135 177.427 5.1135ZM176.617 13.7406V13.7511V13.7406ZM182.593 8.70111C182.593 8.96763 182.499 9.19559 182.309 9.38496C182.127 9.56732 181.902 9.6585 181.636 9.6585C181.369 9.6585 181.141 9.56732 180.952 9.38496C180.77 9.19559 180.678 8.96763 180.678 8.70111C180.678 8.56784 180.703 8.4451 180.752 8.33288C180.801 8.21364 180.868 8.11194 180.952 8.02777C181.043 7.93659 181.145 7.86645 181.257 7.81736C181.376 7.76826 181.503 7.74371 181.636 7.74371C181.769 7.74371 181.892 7.76826 182.004 7.81736C182.123 7.86645 182.225 7.93659 182.309 8.02777C182.4 8.11194 182.47 8.21364 182.52 8.33288C182.569 8.4451 182.593 8.56784 182.593 8.70111ZM180.889 14.8663C180.889 13.8563 180.952 12.8498 181.078 11.8468C181.092 11.7486 181.134 11.6645 181.204 11.5943C181.282 11.5172 181.38 11.4786 181.499 11.4786C181.604 11.4786 181.692 11.5207 181.762 11.6049C181.832 11.682 181.867 11.7732 181.867 11.8784C181.867 11.9205 181.857 12.0467 181.836 12.2571C181.822 12.4676 181.801 12.7201 181.773 13.0146C181.752 13.3022 181.73 13.6108 181.709 13.9405C181.695 14.2631 181.688 14.5612 181.688 14.8348C181.688 15.2065 181.723 15.5081 181.794 15.7395C181.871 15.964 181.965 16.1393 182.078 16.2656C182.197 16.3918 182.32 16.476 182.446 16.5181C182.579 16.5602 182.705 16.5812 182.825 16.5812C183.021 16.5812 183.224 16.5111 183.435 16.3708C183.645 16.2305 183.859 16.0341 184.077 15.7816C184.301 15.5291 184.526 15.2275 184.75 14.8768C184.974 14.5191 185.195 14.1228 185.413 13.688C185.448 13.6178 185.497 13.5652 185.56 13.5302C185.623 13.4881 185.693 13.467 185.77 13.467C185.883 13.467 185.974 13.5091 186.044 13.5933C186.121 13.6775 186.16 13.7686 186.16 13.8668C186.16 13.937 186.146 13.9966 186.118 14.0457C186.034 14.207 185.928 14.4034 185.802 14.6349C185.676 14.8663 185.532 15.1048 185.371 15.3503C185.209 15.5958 185.031 15.8412 184.834 16.0867C184.645 16.3252 184.441 16.5426 184.224 16.739C184.006 16.9284 183.779 17.0827 183.54 17.2019C183.302 17.3212 183.06 17.3808 182.814 17.3808C182.499 17.3808 182.221 17.3142 181.983 17.1809C181.745 17.0476 181.541 16.8688 181.373 16.6443C181.211 16.4199 181.089 16.1569 181.005 15.8553C180.927 15.5467 180.889 15.217 180.889 14.8663ZM182.004 8.70111C182.004 8.60291 181.965 8.51874 181.888 8.44861C181.818 8.37145 181.734 8.33288 181.636 8.33288C181.538 8.33288 181.453 8.37145 181.383 8.44861C181.313 8.51874 181.278 8.60291 181.278 8.70111C181.278 8.7993 181.313 8.88347 181.383 8.95361C181.453 9.02374 181.538 9.05881 181.636 9.05881C181.734 9.05881 181.818 9.02374 181.888 8.95361C181.965 8.88347 182.004 8.7993 182.004 8.70111ZM187.738 16.0131C187.85 15.7816 187.98 15.5291 188.127 15.2556C188.274 14.975 188.432 14.6945 188.601 14.4139C188.769 14.1263 188.944 13.8423 189.127 13.5617C189.316 13.2812 189.512 13.0146 189.716 12.7621C189.919 12.5167 190.123 12.3413 190.326 12.2361C190.536 12.1239 190.733 12.0678 190.915 12.0678C191.28 12.0678 191.55 12.201 191.725 12.4676C191.901 12.7341 191.988 13.0637 191.988 13.4565C191.988 13.5477 191.981 13.6599 191.967 13.7932C191.96 13.9194 191.95 14.0562 191.936 14.2035C191.929 14.3508 191.918 14.5016 191.904 14.6559C191.897 14.8032 191.894 14.9435 191.894 15.0767C191.894 15.2451 191.901 15.4064 191.915 15.5607C191.936 15.715 191.971 15.8518 192.02 15.971C192.069 16.0832 192.139 16.1744 192.23 16.2445C192.321 16.3077 192.441 16.3392 192.588 16.3392C192.855 16.3392 193.114 16.2375 193.367 16.0341C193.619 15.8237 193.85 15.5782 194.061 15.2977C194.278 15.0101 194.464 14.719 194.618 14.4244C194.78 14.1299 194.899 13.8914 194.976 13.709C195.011 13.6319 195.06 13.5723 195.123 13.5302C195.194 13.4881 195.267 13.467 195.344 13.467C195.464 13.467 195.558 13.5126 195.628 13.6038C195.706 13.688 195.744 13.7792 195.744 13.8774C195.744 13.9265 195.734 13.9756 195.713 14.0246C195.685 14.0808 195.628 14.1965 195.544 14.3718C195.46 14.5472 195.348 14.7506 195.208 14.982C195.074 15.2065 194.917 15.4485 194.734 15.708C194.552 15.9605 194.348 16.1919 194.124 16.4024C193.907 16.6128 193.668 16.7881 193.409 16.9284C193.156 17.0687 192.89 17.1388 192.609 17.1388C192.293 17.1388 192.037 17.0792 191.841 16.96C191.645 16.8337 191.49 16.6724 191.378 16.476C191.266 16.2726 191.189 16.0517 191.147 15.8132C191.112 15.5677 191.094 15.3222 191.094 15.0767C191.094 14.9715 191.098 14.8523 191.105 14.719C191.119 14.5858 191.133 14.4455 191.147 14.2982C191.168 14.1509 191.182 14.0036 191.189 13.8563C191.203 13.709 191.21 13.5687 191.21 13.4355C191.21 13.211 191.175 13.0602 191.105 12.9831C191.034 12.8989 190.971 12.8568 190.915 12.8568C190.803 12.8568 190.673 12.9235 190.526 13.0567C190.386 13.183 190.235 13.3513 190.073 13.5617C189.919 13.7721 189.758 14.0106 189.59 14.2771C189.428 14.5367 189.274 14.7962 189.127 15.0557C188.986 15.3152 188.853 15.5642 188.727 15.8027C188.608 16.0341 188.513 16.227 188.443 16.3813C188.302 16.6759 188.162 16.8723 188.022 16.9705C187.882 17.0757 187.738 17.1283 187.591 17.1283C187.387 17.1283 187.222 17.0687 187.096 16.9494C186.977 16.8232 186.917 16.6478 186.917 16.4234C186.917 16.3743 186.924 16.2796 186.938 16.1393C186.952 15.992 186.97 15.8202 186.991 15.6238C187.012 15.4204 187.033 15.203 187.054 14.9715C187.075 14.7401 187.096 14.5121 187.117 14.2877C187.138 14.0562 187.156 13.8423 187.17 13.6459C187.184 13.4495 187.191 13.2847 187.191 13.1514C187.191 12.9761 187.184 12.8077 187.17 12.6464C187.156 12.4851 187.128 12.3869 187.086 12.3518C187.022 12.3729 186.91 12.5061 186.749 12.7516C186.588 12.9901 186.381 13.4144 186.128 14.0246C186.093 14.1018 186.041 14.1614 185.97 14.2035C185.9 14.2456 185.827 14.2666 185.749 14.2666C185.63 14.2666 185.536 14.2281 185.465 14.1509C185.395 14.0667 185.36 13.972 185.36 13.8668C185.36 13.8177 185.371 13.7651 185.392 13.709C185.707 12.9585 186.002 12.4079 186.275 12.0573C186.556 11.6995 186.833 11.5207 187.107 11.5207C187.268 11.5207 187.405 11.5628 187.517 11.6469C187.629 11.7241 187.717 11.8293 187.78 11.9626C187.85 12.0958 187.899 12.2431 187.927 12.4044C187.962 12.5658 187.98 12.7306 187.98 12.8989C187.98 13.0252 187.969 13.2216 187.948 13.4881C187.934 13.7546 187.913 14.0422 187.885 14.3508C187.857 14.6524 187.829 14.954 187.801 15.2556C187.78 15.5572 187.759 15.8097 187.738 16.0131ZM196.165 13.0673C196.123 13.1795 196.07 13.3057 196.007 13.446C195.951 13.5863 195.885 13.7336 195.807 13.8879C195.744 14.0071 195.678 14.1018 195.607 14.1719C195.544 14.2351 195.46 14.2666 195.355 14.2666C195.236 14.2666 195.141 14.2316 195.071 14.1614C195.001 14.0843 194.966 13.9966 194.966 13.8984C194.966 13.8633 194.969 13.8353 194.976 13.8142C194.983 13.7862 195.001 13.7441 195.029 13.688C195.211 13.3373 195.344 13.0322 195.429 12.7727C195.52 12.5061 195.593 12.2291 195.65 11.9415C195.6 11.7802 195.565 11.6434 195.544 11.5312C195.523 11.419 195.513 11.3033 195.513 11.184C195.513 10.9526 195.562 10.7667 195.66 10.6264C195.758 10.4791 195.895 10.4055 196.07 10.4055C196.232 10.4055 196.358 10.4756 196.449 10.6159C196.547 10.7562 196.596 10.928 196.596 11.1314C196.596 11.2436 196.586 11.3559 196.565 11.4681C196.544 11.5803 196.516 11.7206 196.481 11.8889C196.642 12.2887 196.803 12.6429 196.965 12.9515C197.126 13.2601 197.27 13.5442 197.396 13.8037C197.522 14.0562 197.624 14.2947 197.701 14.5191C197.785 14.7436 197.827 14.968 197.827 15.1925C197.827 15.487 197.768 15.7676 197.648 16.0341C197.529 16.3007 197.333 16.5251 197.059 16.7075C197.094 16.7145 197.129 16.718 197.165 16.718C197.2 16.718 197.235 16.718 197.27 16.718C197.67 16.718 198.038 16.6268 198.374 16.4444C198.711 16.2621 199.013 16.0271 199.279 15.7395C199.553 15.445 199.795 15.1223 200.005 14.7716C200.216 14.4139 200.398 14.0597 200.552 13.709C200.622 13.5477 200.721 13.467 200.847 13.467C200.966 13.467 201.057 13.5091 201.12 13.5933C201.191 13.6775 201.226 13.7686 201.226 13.8668C201.226 13.9229 201.215 13.9756 201.194 14.0246C201.117 14.214 201.015 14.4315 200.889 14.6769C200.77 14.9154 200.622 15.1644 200.447 15.4239C200.279 15.6764 200.082 15.9254 199.858 16.1709C199.633 16.4164 199.381 16.6373 199.1 16.8337C198.827 17.0231 198.525 17.1739 198.196 17.2861C197.866 17.4053 197.505 17.465 197.112 17.465C196.642 17.465 196.204 17.3808 195.797 17.2125C195.397 17.0511 195.071 16.7811 194.818 16.4024C194.776 16.3392 194.755 16.2726 194.755 16.2025C194.755 16.0973 194.794 16.0061 194.871 15.9289C194.955 15.8448 195.05 15.8027 195.155 15.8027C195.267 15.8027 195.362 15.8412 195.439 15.9184C195.446 15.9324 195.471 15.957 195.513 15.992C195.555 16.0201 195.604 16.0552 195.66 16.0973C195.723 16.1323 195.793 16.1639 195.87 16.1919C195.955 16.22 196.039 16.234 196.123 16.234C196.291 16.234 196.432 16.199 196.544 16.1288C196.663 16.0587 196.758 15.9745 196.828 15.8763C196.898 15.7711 196.947 15.6624 196.975 15.5502C197.01 15.4309 197.028 15.3292 197.028 15.2451C197.028 15.0697 197 14.8944 196.944 14.719C196.887 14.5437 196.814 14.3683 196.723 14.193C196.638 14.0176 196.544 13.8388 196.439 13.6564C196.34 13.467 196.249 13.2707 196.165 13.0673Z" fill="#CCCCCC"/>
</svg>
