<svg width="80" height="80" viewBox="0 0 80 80" fill="none" xmlns="http://www.w3.org/2000/svg">
<g clip-path="url(#clip0_29_73)">
<path fill-rule="evenodd" clip-rule="evenodd" d="M0 0H80V80H0V0Z" fill="#FAFAFA"/>
<path fill-rule="evenodd" clip-rule="evenodd" d="M18.0812 58.6176H48.6816L49.1484 53.884H21.2812L18.0812 58.6176Z" fill="#171717"/>
<path fill-rule="evenodd" clip-rule="evenodd" d="M29.6084 23.2996L29.432 21.3824H23.2152L23.0756 23.6508L29.6084 23.2996Z" fill="#493CC1"/>
<path fill-rule="evenodd" clip-rule="evenodd" d="M34.6624 23.342L35.1904 21.3712L39.7488 21.3824L40 23.8516L34.6624 23.342Z" fill="#493CC1"/>
<path fill-rule="evenodd" clip-rule="evenodd" d="M45.132 22.8868L45.6168 21.3824H51.8816L51.792 22.4136L51.3344 24.0484L45.132 22.8868Z" fill="#493CC1"/>
<path fill-rule="evenodd" clip-rule="evenodd" d="M37.4684 6.03799C42.8164 6.03799 47.1516 11.7388 47.1516 18.7712H45.7308C45.7308 12.7704 42.0316 7.50599 37.468 7.50599C32.9044 7.50599 29.2052 12.7704 29.2052 18.7712H27.7844C27.7844 11.7388 32.1196 6.03799 37.4676 6.03799H37.4684Z" fill="#493CC1"/>
<path fill-rule="evenodd" clip-rule="evenodd" d="M52.9044 21.3824L49.8484 58.6176L54.8048 52.7824L60.5648 58.5424L52.9044 21.3824Z" fill="#171717"/>
<path fill-rule="evenodd" clip-rule="evenodd" d="M35.936 23.4636L37.3616 23.6L40 40L47.146 23.264L51.3344 24.0484L51.792 22.4136L49.1484 52.7824H21.2816L23.2152 21.3824L23.0756 23.6508L28.222 23.3744L30.3064 39.102L35.936 23.4636Z" fill="#171717"/>
<path d="M26.4484 52.7824C26.0968 52.7824 25.8492 52.6312 25.7032 52.3304C25.5576 52.028 25.4696 51.6756 25.44 51.2732L23.1196 23.314C23.1164 23.1128 23.1228 22.9316 23.1388 22.7704C23.1744 22.4096 23.2828 22.0872 23.4624 21.8048C23.6428 21.5236 23.8488 21.3824 24.0836 21.3824H28.61C28.9376 21.3824 29.1792 21.5336 29.3368 21.8344C29.494 22.1368 29.5704 22.4292 29.566 22.7104L30.6504 37.6252L34.8228 22.7704C34.8972 22.4892 35.044 22.1868 35.2628 21.866C35.482 21.5436 35.7672 21.3824 36.118 21.3824H38.8896C39.2412 21.3824 39.4936 21.5436 39.6492 21.866C39.8048 22.1868 39.8916 22.4892 39.9104 22.7704L41.142 37.6252L45.1796 22.7104C45.2548 22.4292 45.4004 22.1368 45.6168 21.8344C45.834 21.5336 46.1068 21.3824 46.434 21.3824H50.9604C51.1708 21.3824 51.3444 21.5236 51.4796 21.8048C51.6156 22.0872 51.6652 22.4096 51.6292 22.7704C51.6132 22.9316 51.5836 23.1128 51.5404 23.314L43.6852 51.2732C43.5516 51.6756 43.3884 52.0276 43.1944 52.3304C43.0012 52.6312 42.7288 52.7824 42.378 52.7824H38.4476C38.0968 52.7824 37.8492 52.6312 37.7032 52.3304C37.5576 52.028 37.458 51.6756 37.404 51.2732L35.9848 36.9008L31.6852 51.2732C31.5748 51.6756 31.4176 52.0276 31.2116 52.3304C31.0068 52.6312 30.7284 52.7824 30.3776 52.7824H26.448H26.4484Z" fill="#493CC1"/>
<path fill-rule="evenodd" clip-rule="evenodd" d="M54.9116 54.2704L57.0836 56.444L59.256 58.6176H55.2064H51.1572L53.0344 56.444L54.9116 54.2704Z" fill="#171717"/>
<path d="M19.2136 68.3096C19.1204 68.3096 19.0476 68.2824 18.996 68.2284C18.9444 68.1744 18.9112 68.1152 18.8964 68.0512L18.1588 63.338C18.1588 63.3328 18.1588 63.328 18.1588 63.3232C18.1588 63.3184 18.1588 63.3132 18.1588 63.3084C18.1588 63.264 18.1736 63.226 18.2032 63.194C18.2328 63.162 18.2696 63.146 18.314 63.146H19.4572C19.6096 63.146 19.6932 63.2076 19.708 63.3304L20.0692 65.8088L20.4896 64.496C20.4992 64.4568 20.5216 64.4124 20.556 64.3632C20.5904 64.314 20.6496 64.2896 20.7332 64.2896H21.3748C21.4584 64.2896 21.5172 64.314 21.552 64.3632C21.5864 64.4124 21.6112 64.4568 21.6256 64.496L22.0388 65.8016L22.4076 63.3304C22.4224 63.2076 22.5036 63.146 22.6512 63.146H23.7944C23.8388 63.146 23.8768 63.162 23.9088 63.194C23.9408 63.226 23.9568 63.264 23.9568 63.3084C23.9568 63.3132 23.9568 63.3184 23.9568 63.3232C23.9568 63.328 23.9544 63.3328 23.9496 63.338L23.212 68.0512C23.2072 68.1152 23.1764 68.1744 23.12 68.2284C23.0632 68.2824 22.9884 68.3096 22.8948 68.3096H22.0172C21.9288 68.3096 21.8624 68.2864 21.818 68.2396C21.7736 68.1928 21.744 68.1524 21.7296 68.1176L21.0584 66.3032L20.3796 68.1176C20.3696 68.152 20.3416 68.1928 20.2948 68.2396C20.248 68.2864 20.1804 68.3096 20.092 68.3096H19.214H19.2136ZM24.8124 68.3096C24.7632 68.3096 24.7188 68.2912 24.6796 68.2544C24.6404 68.2176 24.6208 68.172 24.6208 68.1176V63.338C24.6208 63.2836 24.6404 63.2384 24.6796 63.2012C24.7188 63.1644 24.7632 63.146 24.8124 63.146H28.4268C28.4808 63.146 28.5276 63.1644 28.5672 63.2012C28.6064 63.238 28.626 63.2836 28.626 63.338V64.2084C28.626 64.2576 28.6064 64.302 28.5672 64.3412C28.528 64.3804 28.4812 64.4004 28.4268 64.4004H26.1476V65.1304H28.2644C28.3188 65.1304 28.3652 65.1488 28.4044 65.186C28.4436 65.2228 28.4636 65.2684 28.4636 65.3224V66.1192C28.4636 66.1732 28.444 66.2188 28.4044 66.2556C28.3652 66.2924 28.3184 66.3112 28.2644 66.3112H26.1476V67.056H28.4856C28.54 67.056 28.5864 67.0756 28.6256 67.1152C28.6648 67.1544 28.6848 67.2012 28.6848 67.2552V68.118C28.6848 68.172 28.6652 68.2176 28.6256 68.2548C28.5864 68.2916 28.5396 68.31 28.4856 68.31H24.8124V68.3096ZM29.6292 68.3096C29.58 68.3096 29.5356 68.2912 29.4964 68.2544C29.4572 68.2176 29.4376 68.172 29.4376 68.1176V63.338C29.4376 63.2836 29.4572 63.2384 29.4964 63.2012C29.5356 63.1644 29.58 63.146 29.6292 63.146H31.9824C32.43 63.146 32.796 63.2052 33.0812 63.3232C33.3664 63.4412 33.578 63.6108 33.7156 63.832C33.8532 64.0532 33.922 64.326 33.922 64.6508C33.922 64.818 33.8888 64.9668 33.8224 65.0972C33.756 65.2276 33.676 65.3356 33.5828 65.422C33.4892 65.508 33.4008 65.5704 33.3172 65.61C33.5088 65.6936 33.676 65.8348 33.8188 66.034C33.9616 66.2332 34.0328 66.4608 34.0328 66.7164C34.0328 67.0608 33.9556 67.3508 33.8004 67.5868C33.6456 67.8228 33.4216 68.0024 33.1292 68.1252C32.8368 68.248 32.4788 68.3096 32.056 68.3096H29.6292ZM31.0232 67.196H31.886C32.0532 67.196 32.176 67.1456 32.2548 67.0448C32.3336 66.944 32.3728 66.832 32.3728 66.7092C32.3728 66.5812 32.3308 66.4696 32.2476 66.3736C32.164 66.2776 32.0432 66.2296 31.886 66.2296H31.0232V67.196ZM31.0232 65.1452H31.8124C31.9696 65.1452 32.0852 65.1008 32.1592 65.0124C32.2328 64.924 32.27 64.8204 32.27 64.7028C32.27 64.5848 32.2332 64.4816 32.1592 64.3932C32.0852 64.3048 31.9696 64.2604 31.8124 64.2604H31.0232V65.1456V65.1452ZM38.2592 68.3832C37.7428 68.3832 37.3136 68.3108 36.972 68.1656C36.63 68.0204 36.3744 67.8312 36.2048 67.5976C36.0352 67.364 35.9452 67.1168 35.9356 66.856C35.9356 66.8116 35.9504 66.7748 35.98 66.7452C36.0096 66.7156 36.0464 66.7008 36.0908 66.7008H37.2636C37.3324 66.7008 37.3864 66.712 37.426 66.734C37.4652 66.756 37.5072 66.7868 37.5516 66.8264C37.596 66.8804 37.6476 66.9308 37.7064 66.9776C37.7656 67.0244 37.8416 67.0612 37.9348 67.0884C38.028 67.1156 38.1364 67.1292 38.2592 67.1292C38.4856 67.1292 38.66 67.0984 38.7828 67.0368C38.9056 66.9752 38.9672 66.8904 38.9672 66.7824C38.9672 66.6988 38.934 66.63 38.8676 66.576C38.8012 66.522 38.6892 66.4728 38.532 66.4284C38.3748 66.384 38.1608 66.3376 37.8904 66.2884C37.5116 66.2244 37.1848 66.13 36.9096 66.0044C36.6344 65.8788 36.424 65.7096 36.2788 65.4956C36.1336 65.2816 36.0612 65.0172 36.0612 64.7024C36.0612 64.3828 36.1508 64.1 36.3304 63.8544C36.51 63.6084 36.7608 63.4168 37.0828 63.2792C37.4048 63.1416 37.78 63.0728 38.2076 63.0728C38.5616 63.0728 38.8752 63.1196 39.148 63.2128C39.4208 63.3064 39.6508 63.428 39.8376 63.578C40.0244 63.728 40.1672 63.8892 40.2652 64.0612C40.3636 64.2332 40.4152 64.398 40.42 64.5556C40.42 64.6 40.404 64.638 40.372 64.67C40.34 64.702 40.3044 64.718 40.2648 64.718H39.0332C38.974 64.718 38.9248 64.708 38.8856 64.6884C38.846 64.6688 38.8068 64.6368 38.7676 64.5924C38.7432 64.5236 38.6816 64.462 38.5832 64.408C38.4848 64.354 38.3592 64.3268 38.2072 64.3268C38.04 64.3268 37.912 64.3552 37.8236 64.4116C37.7352 64.4684 37.6908 64.5504 37.6908 64.6588C37.6908 64.7324 37.718 64.7964 37.772 64.8508C37.826 64.9048 37.922 64.9528 38.0596 64.9944C38.1972 65.0364 38.3892 65.0816 38.6348 65.1308C39.102 65.1996 39.4792 65.298 39.7672 65.426C40.0548 65.554 40.2652 65.7208 40.398 65.9276C40.5308 66.1344 40.5972 66.3924 40.5972 66.702C40.5972 67.0512 40.4964 67.3512 40.2948 67.602C40.0932 67.8528 39.8164 68.0456 39.4648 68.1812C39.1132 68.3164 38.7112 68.384 38.2588 68.384L38.2592 68.3832ZM42.5152 68.3096C42.4612 68.3096 42.4156 68.2912 42.3788 68.2544C42.342 68.2176 42.3232 68.172 42.3232 68.1176V64.518H41.0544C41.0004 64.518 40.9548 64.4996 40.918 64.4624C40.8812 64.4256 40.8624 64.38 40.8624 64.326V63.3376C40.8624 63.2832 40.8808 63.238 40.918 63.2008C40.9548 63.164 41.0004 63.1456 41.0544 63.1456H45.2C45.254 63.1456 45.2996 63.164 45.3364 63.2008C45.3732 63.2376 45.3916 63.2832 45.3916 63.3376V64.326C45.3916 64.38 45.3732 64.4256 45.3364 64.4624C45.2996 64.4992 45.254 64.518 45.2 64.518H43.9312V68.1176C43.9312 68.1716 43.9128 68.2172 43.8756 68.2544C43.8388 68.2912 43.7932 68.3096 43.7392 68.3096H42.5148H42.5152ZM48.1508 68.3832C47.6788 68.3832 47.2692 68.3096 46.9228 68.162C46.576 68.0144 46.3032 67.792 46.104 67.4944C45.9048 67.1968 45.798 66.8268 45.7832 66.3844C45.7784 66.178 45.776 65.9652 45.776 65.7464C45.776 65.5276 45.7784 65.31 45.7832 65.0936C45.798 64.656 45.9048 64.2872 46.104 63.9872C46.3032 63.6872 46.5772 63.4596 46.9264 63.3048C47.2756 63.15 47.6836 63.0724 48.1508 63.0724C48.6132 63.0724 49.0188 63.1496 49.368 63.3048C49.7172 63.4596 49.9924 63.6872 50.194 63.9872C50.3956 64.2872 50.5016 64.656 50.5112 65.0936C50.5208 65.31 50.526 65.5276 50.526 65.7464C50.526 65.9652 50.5212 66.178 50.5112 66.3844C50.4964 66.8268 50.3896 67.1972 50.1904 67.4944C49.9912 67.792 49.7184 68.0144 49.3716 68.162C49.0252 68.3096 48.618 68.3832 48.1508 68.3832ZM48.1508 67.1292C48.3576 67.1292 48.5268 67.0664 48.6596 66.9408C48.7924 66.8156 48.8612 66.6152 48.8664 66.3396C48.876 66.1284 48.8812 65.9228 48.8812 65.7236C48.8812 65.5244 48.8764 65.3216 48.8664 65.1152C48.8612 64.9332 48.8284 64.7832 48.7668 64.6652C48.7052 64.5472 48.6216 64.4612 48.516 64.4072C48.4104 64.3532 48.2884 64.326 48.1508 64.326C48.0132 64.326 47.89 64.3532 47.782 64.4072C47.674 64.4612 47.5888 64.5472 47.5276 64.6652C47.466 64.7832 47.4328 64.9332 47.428 65.1152C47.4228 65.3216 47.4204 65.5244 47.4204 65.7236C47.4204 65.9228 47.4228 66.128 47.428 66.3396C47.4376 66.6152 47.508 66.8156 47.638 66.9408C47.7684 67.0664 47.9392 67.1292 48.1508 67.1292ZM51.4776 68.3092C51.4284 68.3092 51.3844 68.2908 51.3448 68.254C51.3056 68.2172 51.286 68.1716 51.286 68.1172V63.3376C51.286 63.2832 51.3056 63.238 51.3448 63.2008C51.384 63.164 51.4284 63.1456 51.4776 63.1456H53.58C54.2488 63.1456 54.7736 63.298 55.1548 63.6028C55.536 63.9076 55.7264 64.3332 55.7264 64.8788C55.7264 65.2232 55.6476 65.5156 55.4904 65.7568C55.3332 65.998 55.1264 66.1872 54.8708 66.3248L55.83 68.0656C55.8448 68.0952 55.852 68.1224 55.852 68.1468C55.852 68.1912 55.8372 68.2292 55.8076 68.2612C55.778 68.2932 55.7412 68.3092 55.6968 68.3092H54.4504C54.3568 68.3092 54.2856 68.286 54.2364 68.2392C54.1872 68.1924 54.1552 68.1496 54.1404 68.11L53.4028 66.5904H52.8716V68.1172C52.8716 68.1712 52.8532 68.2168 52.8164 68.254C52.7796 68.2908 52.734 68.3092 52.68 68.3092H51.4776ZM52.8716 65.3732H53.5724C53.7444 65.3732 53.8724 65.3252 53.956 65.2296C54.0396 65.1336 54.0816 65.0144 54.0816 64.872C54.0816 64.7244 54.0412 64.5992 53.96 64.496C53.8788 64.3928 53.75 64.3412 53.5728 64.3412H52.872V65.3736L52.8716 65.3732ZM56.6924 68.3092C56.6432 68.3092 56.5988 68.2908 56.5596 68.254C56.5204 68.2172 56.5008 68.1716 56.5008 68.1172V63.3376C56.5008 63.2832 56.5204 63.238 56.5596 63.2008C56.5988 63.164 56.6432 63.1456 56.6924 63.1456H60.3068C60.3608 63.1456 60.4076 63.164 60.4472 63.2008C60.4864 63.2376 60.506 63.2832 60.506 63.3376V64.208C60.506 64.2572 60.4864 64.3016 60.4472 64.3408C60.408 64.38 60.3612 64.4 60.3068 64.4H58.0276V65.13H60.1444C60.1988 65.13 60.2452 65.1484 60.2844 65.1856C60.3236 65.2224 60.3436 65.268 60.3436 65.322V66.1188C60.3436 66.1728 60.324 66.2184 60.2844 66.2552C60.2452 66.292 60.1984 66.3108 60.1444 66.3108H58.0276V67.0556H60.3656C60.42 67.0556 60.4664 67.0752 60.5056 67.1148C60.5448 67.154 60.5648 67.2008 60.5648 67.2548V68.1176C60.5648 68.1716 60.5452 68.2172 60.5056 68.2544C60.4664 68.2912 60.4196 68.3096 60.3656 68.3096H56.6924V68.3092Z" fill="#493CC1"/>
</g>
<defs>
<clipPath id="clip0_29_73">
<rect width="80" height="80" fill="white"/>
</clipPath>
</defs>
</svg>
