<svg width="663" height="292" viewBox="0 0 663 292" fill="none" xmlns="http://www.w3.org/2000/svg">
<g filter="url(#filter0_d_69_25)">
<rect width="655" height="284" transform="translate(4)" fill="#FAFAFA"/>
<g clip-path="url(#clip0_69_25)">
<path fill-rule="evenodd" clip-rule="evenodd" d="M-48.5159 0.111115H304.683V353.31H-48.5159V0.111115Z" fill="#FAFAFA"/>
<path fill-rule="evenodd" clip-rule="evenodd" d="M31.3123 258.907H166.412L168.473 238.008H45.4402L31.3123 258.907Z" fill="#171717"/>
<path fill-rule="evenodd" clip-rule="evenodd" d="M82.2046 102.978L81.4258 94.514H53.9788L53.3624 104.529L82.2046 102.978Z" fill="#493CC1"/>
<path fill-rule="evenodd" clip-rule="evenodd" d="M104.518 103.166L106.849 94.4645L126.974 94.514L128.083 105.415L104.518 103.166Z" fill="#493CC1"/>
<path fill-rule="evenodd" clip-rule="evenodd" d="M150.741 101.156L152.881 94.514H180.54L180.145 99.0667L178.124 106.284L150.741 101.156Z" fill="#493CC1"/>
<path fill-rule="evenodd" clip-rule="evenodd" d="M116.906 26.7687C140.518 26.7687 159.658 51.9377 159.658 82.9856H153.385C153.385 56.4922 137.053 33.2499 116.905 33.2499C96.7564 33.2499 80.4245 56.4922 80.4245 82.9856H74.1517C74.1517 51.9377 93.2915 26.7687 116.903 26.7687H116.906Z" fill="#493CC1"/>
<path fill-rule="evenodd" clip-rule="evenodd" d="M185.056 94.514L171.564 258.907L193.446 233.144L218.877 258.575L185.056 94.514Z" fill="#171717"/>
<path fill-rule="evenodd" clip-rule="evenodd" d="M110.141 103.702L116.435 104.305L128.083 176.71L159.633 102.821L178.125 106.284L180.145 99.0667L168.473 233.144H45.442L53.9788 94.514L53.3625 104.529L76.0837 103.309L85.2863 172.746L110.141 103.702Z" fill="#171717"/>
<path d="M68.2533 233.144C66.701 233.144 65.6078 232.477 64.9632 231.149C64.3204 229.814 63.9319 228.258 63.8012 226.481L53.5567 103.042C53.5426 102.154 53.5708 101.354 53.6415 100.642C53.7986 99.049 54.2772 97.6257 55.0702 96.3789C55.8666 95.1374 56.7761 94.514 57.8127 94.514H77.7967C79.243 94.514 80.3097 95.1815 81.0055 96.5095C81.6995 97.8446 82.0369 99.1356 82.0174 100.377L86.805 166.226L105.226 100.642C105.555 99.4005 106.203 98.0654 107.169 96.6491C108.136 95.2257 109.396 94.514 110.944 94.514H123.181C124.733 94.514 125.848 95.2257 126.535 96.6491C127.222 98.0654 127.605 99.4005 127.688 100.642L133.125 166.226L150.951 100.377C151.283 99.1356 151.926 97.8446 152.881 96.5095C153.84 95.1815 155.045 94.514 156.489 94.514H176.473C177.402 94.514 178.169 95.1374 178.766 96.3789C179.366 97.6257 179.585 99.049 179.426 100.642C179.355 101.354 179.225 102.154 179.034 103.042L144.353 226.481C143.764 228.258 143.043 229.812 142.187 231.149C141.334 232.477 140.131 233.144 138.582 233.144H121.23C119.681 233.144 118.588 232.477 117.943 231.149C117.3 229.814 116.86 228.258 116.622 226.481L110.356 163.027L91.3736 226.481C90.8862 228.258 90.1922 229.812 89.2827 231.149C88.3785 232.477 87.1494 233.144 85.6006 233.144H68.2515H68.2533Z" fill="#493CC1"/>
<path fill-rule="evenodd" clip-rule="evenodd" d="M193.918 239.714L203.507 249.31L213.098 258.907H195.219H177.342L185.63 249.31L193.918 239.714Z" fill="#171717"/>
</g>
<path d="M229.892 167.641C228.984 167.641 228.275 167.376 227.773 166.85C227.27 166.324 226.947 165.747 226.803 165.124L219.619 119.221C219.619 119.171 219.619 119.124 219.619 119.077C219.619 119.03 219.619 118.98 219.619 118.933C219.619 118.501 219.763 118.131 220.051 117.819C220.34 117.507 220.698 117.351 221.131 117.351H232.264C233.749 117.351 234.563 117.951 234.707 119.147L238.225 143.285L242.319 130.499C242.413 130.118 242.631 129.685 242.966 129.206C243.301 128.727 243.877 128.489 244.692 128.489H250.94C251.754 128.489 252.327 128.727 252.666 129.206C253.001 129.685 253.243 130.118 253.383 130.499L257.407 143.215L260.999 119.147C261.143 117.951 261.934 117.351 263.371 117.351H274.505C274.938 117.351 275.308 117.507 275.619 117.819C275.931 118.131 276.087 118.501 276.087 118.933C276.087 118.98 276.087 119.03 276.087 119.077C276.087 119.124 276.063 119.171 276.017 119.221L268.833 165.124C268.786 165.747 268.486 166.324 267.937 166.85C267.384 167.376 266.655 167.641 265.744 167.641H257.197C256.336 167.641 255.689 167.415 255.257 166.959C254.824 166.503 254.536 166.11 254.396 165.771L247.859 148.1L241.248 165.771C241.15 166.106 240.878 166.503 240.422 166.959C239.966 167.415 239.308 167.641 238.447 167.641H229.896H229.892ZM284.42 167.641C283.941 167.641 283.508 167.462 283.126 167.103C282.745 166.745 282.554 166.301 282.554 165.771V119.221C282.554 118.692 282.745 118.251 283.126 117.889C283.508 117.531 283.941 117.351 284.42 117.351H319.621C320.147 117.351 320.603 117.531 320.988 117.889C321.37 118.247 321.561 118.692 321.561 119.221V127.698C321.561 128.178 321.37 128.61 320.988 128.992C320.607 129.374 320.151 129.568 319.621 129.568H297.423V136.678H318.039C318.569 136.678 319.021 136.857 319.403 137.219C319.785 137.578 319.979 138.022 319.979 138.548V146.308C319.979 146.834 319.789 147.278 319.403 147.636C319.021 147.995 318.565 148.178 318.039 148.178H297.423V155.432H320.194C320.723 155.432 321.175 155.623 321.557 156.008C321.939 156.39 322.134 156.846 322.134 157.372V165.775C322.134 166.301 321.943 166.745 321.557 167.107C321.175 167.465 320.72 167.645 320.194 167.645H284.42V167.641ZM331.331 167.641C330.852 167.641 330.42 167.462 330.038 167.103C329.656 166.745 329.465 166.301 329.465 165.771V119.221C329.465 118.692 329.656 118.251 330.038 117.889C330.42 117.531 330.852 117.351 331.331 117.351H354.25C358.609 117.351 362.173 117.928 364.951 119.077C367.729 120.226 369.79 121.878 371.13 124.033C372.47 126.187 373.14 128.844 373.14 132.007C373.14 133.635 372.816 135.085 372.17 136.355C371.523 137.625 370.744 138.676 369.836 139.518C368.925 140.355 368.064 140.963 367.25 141.349C369.116 142.163 370.744 143.538 372.135 145.478C373.525 147.418 374.219 149.635 374.219 152.124C374.219 155.478 373.467 158.303 371.956 160.601C370.448 162.9 368.266 164.649 365.419 165.845C362.571 167.041 359.084 167.641 354.966 167.641H331.331ZM344.908 156.795H353.311C354.939 156.795 356.135 156.304 356.903 155.323C357.67 154.341 358.052 153.25 358.052 152.054C358.052 150.808 357.643 149.721 356.832 148.786C356.018 147.851 354.842 147.383 353.311 147.383H344.908V156.795ZM344.908 136.822H352.594C354.125 136.822 355.251 136.39 355.972 135.529C356.688 134.668 357.051 133.659 357.051 132.513C357.051 131.364 356.692 130.359 355.972 129.498C355.251 128.637 354.125 128.205 352.594 128.205H344.908V136.826V136.822ZM415.381 168.358C410.351 168.358 406.171 167.652 402.844 166.238C399.514 164.824 397.024 162.981 395.372 160.706C393.721 158.431 392.844 156.024 392.751 153.484C392.751 153.051 392.895 152.693 393.183 152.405C393.471 152.116 393.83 151.972 394.262 151.972H405.684C406.354 151.972 406.88 152.081 407.266 152.296C407.648 152.51 408.057 152.81 408.489 153.196C408.922 153.721 409.424 154.212 409.997 154.668C410.573 155.124 411.314 155.482 412.221 155.747C413.129 156.012 414.185 156.145 415.381 156.145C417.586 156.145 419.284 155.845 420.48 155.245C421.676 154.645 422.276 153.819 422.276 152.767C422.276 151.953 421.953 151.283 421.306 150.757C420.659 150.231 419.568 149.752 418.037 149.319C416.506 148.887 414.422 148.435 411.789 147.956C408.1 147.333 404.917 146.413 402.237 145.19C399.556 143.967 397.507 142.319 396.093 140.235C394.679 138.15 393.974 135.575 393.974 132.51C393.974 129.397 394.846 126.643 396.596 124.251C398.345 121.855 400.787 119.989 403.923 118.649C407.059 117.309 410.714 116.639 414.878 116.639C418.326 116.639 421.38 117.094 424.037 118.002C426.694 118.914 428.934 120.098 430.753 121.559C432.572 123.02 433.963 124.59 434.917 126.265C435.876 127.94 436.378 129.545 436.425 131.08C436.425 131.512 436.269 131.882 435.958 132.194C435.646 132.506 435.299 132.661 434.914 132.661H422.919C422.342 132.661 421.863 132.564 421.481 132.373C421.096 132.182 420.714 131.871 420.332 131.438C420.094 130.768 419.494 130.168 418.536 129.642C417.578 129.116 416.355 128.852 414.874 128.852C413.246 128.852 411.999 129.128 411.138 129.677C410.277 130.231 409.845 131.029 409.845 132.085C409.845 132.802 410.11 133.425 410.636 133.955C411.162 134.481 412.097 134.948 413.437 135.353C414.777 135.762 416.647 136.203 419.039 136.682C423.589 137.352 427.262 138.31 430.067 139.557C432.868 140.803 434.917 142.428 436.211 144.442C437.504 146.456 438.151 148.969 438.151 151.984C438.151 155.385 437.169 158.307 435.206 160.749C433.242 163.192 430.546 165.07 427.122 166.39C423.698 167.707 419.783 168.365 415.377 168.365L415.381 168.358ZM456.831 167.641C456.305 167.641 455.861 167.462 455.502 167.103C455.144 166.745 454.961 166.301 454.961 165.771V130.714H442.604C442.078 130.714 441.634 130.534 441.275 130.172C440.917 129.814 440.734 129.37 440.734 128.844V119.217C440.734 118.688 440.913 118.247 441.275 117.885C441.634 117.527 442.078 117.348 442.604 117.348H482.978C483.504 117.348 483.948 117.527 484.307 117.885C484.665 118.244 484.844 118.688 484.844 119.217V128.844C484.844 129.37 484.665 129.814 484.307 130.172C483.948 130.531 483.504 130.714 482.978 130.714H470.621V165.771C470.621 166.297 470.442 166.741 470.08 167.103C469.721 167.462 469.277 167.641 468.751 167.641H456.827H456.831ZM511.717 168.358C507.12 168.358 503.131 167.641 499.757 166.203C496.379 164.766 493.723 162.6 491.783 159.701C489.843 156.803 488.802 153.199 488.658 148.891C488.611 146.881 488.588 144.808 488.588 142.677C488.588 140.546 488.611 138.427 488.658 136.319C488.802 132.058 489.843 128.466 491.783 125.544C493.723 122.622 496.391 120.406 499.792 118.898C503.193 117.39 507.167 116.635 511.717 116.635C516.22 116.635 520.17 117.387 523.571 118.898C526.972 120.406 529.652 122.622 531.616 125.544C533.579 128.466 534.612 132.058 534.705 136.319C534.799 138.427 534.849 140.546 534.849 142.677C534.849 144.808 534.803 146.881 534.705 148.891C534.561 153.199 533.521 156.807 531.581 159.701C529.641 162.6 526.984 164.766 523.606 166.203C520.233 167.641 516.267 168.358 511.717 168.358ZM511.717 156.145C513.731 156.145 515.379 155.533 516.672 154.31C517.965 153.09 518.635 151.139 518.686 148.455C518.78 146.398 518.83 144.395 518.83 142.455C518.83 140.515 518.784 138.54 518.686 136.53C518.635 134.757 518.316 133.296 517.716 132.147C517.116 130.998 516.302 130.16 515.274 129.635C514.245 129.109 513.057 128.844 511.717 128.844C510.377 128.844 509.177 129.109 508.125 129.635C507.073 130.16 506.243 130.998 505.647 132.147C505.047 133.296 504.724 134.757 504.677 136.53C504.627 138.54 504.603 140.515 504.603 142.455C504.603 144.395 504.627 146.394 504.677 148.455C504.771 151.139 505.456 153.09 506.722 154.31C507.992 155.533 509.656 156.145 511.717 156.145ZM544.117 167.637C543.638 167.637 543.209 167.458 542.824 167.099C542.442 166.741 542.251 166.297 542.251 165.767V119.217C542.251 118.688 542.442 118.247 542.824 117.885C543.205 117.527 543.638 117.348 544.117 117.348H564.593C571.106 117.348 576.217 118.832 579.93 121.8C583.643 124.769 585.497 128.914 585.497 134.228C585.497 137.582 584.729 140.429 583.198 142.779C581.667 145.128 579.653 146.97 577.164 148.31L586.506 165.264C586.65 165.553 586.72 165.818 586.72 166.055C586.72 166.488 586.576 166.858 586.288 167.169C585.999 167.481 585.641 167.637 585.209 167.637H573.07C572.158 167.637 571.465 167.411 570.986 166.955C570.506 166.499 570.195 166.082 570.051 165.697L562.867 150.897H557.694V165.767C557.694 166.293 557.514 166.737 557.156 167.099C556.798 167.458 556.353 167.637 555.827 167.637H544.117ZM557.694 139.043H564.519C566.194 139.043 567.44 138.575 568.255 137.644C569.069 136.709 569.478 135.548 569.478 134.161C569.478 132.724 569.084 131.504 568.294 130.499C567.503 129.494 566.248 128.992 564.523 128.992H557.697V139.046L557.694 139.043ZM594.905 167.637C594.426 167.637 593.993 167.458 593.612 167.099C593.23 166.741 593.039 166.297 593.039 165.767V119.217C593.039 118.688 593.23 118.247 593.612 117.885C593.993 117.527 594.426 117.348 594.905 117.348H630.106C630.632 117.348 631.088 117.527 631.474 117.885C631.855 118.244 632.046 118.688 632.046 119.217V127.694C632.046 128.174 631.855 128.606 631.474 128.988C631.092 129.37 630.636 129.564 630.106 129.564H607.909V136.674H628.525C629.054 136.674 629.506 136.853 629.888 137.216C630.27 137.574 630.465 138.018 630.465 138.544V146.304C630.465 146.83 630.274 147.274 629.888 147.633C629.506 147.991 629.051 148.174 628.525 148.174H607.909V155.428H630.679C631.209 155.428 631.661 155.619 632.042 156.004C632.424 156.386 632.619 156.842 632.619 157.368V165.771C632.619 166.297 632.428 166.741 632.042 167.103C631.661 167.462 631.205 167.641 630.679 167.641H594.905V167.637Z" fill="#493CC1"/>
</g>
<defs>
<filter id="filter0_d_69_25" x="0" y="0" width="663" height="292" filterUnits="userSpaceOnUse" color-interpolation-filters="sRGB">
<feFlood flood-opacity="0" result="BackgroundImageFix"/>
<feColorMatrix in="SourceAlpha" type="matrix" values="0 0 0 0 0 0 0 0 0 0 0 0 0 0 0 0 0 0 127 0" result="hardAlpha"/>
<feOffset dy="4"/>
<feGaussianBlur stdDeviation="2"/>
<feComposite in2="hardAlpha" operator="out"/>
<feColorMatrix type="matrix" values="0 0 0 0 0 0 0 0 0 0 0 0 0 0 0 0 0 0 0.25 0"/>
<feBlend mode="normal" in2="BackgroundImageFix" result="effect1_dropShadow_69_25"/>
<feBlend mode="normal" in="SourceGraphic" in2="effect1_dropShadow_69_25" result="shape"/>
</filter>
<clipPath id="clip0_69_25">
<rect width="188.619" height="233" fill="white" transform="translate(31 26)"/>
</clipPath>
</defs>
</svg>
